<svg width="92" height="64" viewBox="0 0 92 64" fill="none" xmlns="http://www.w3.org/2000/svg">
<path d="M80.9746 26.9978L80.9744 26.9976C71.6477 17.1013 59.0664 11.6473 45.5514 11.6473C32.0365 11.6473 19.4542 17.1003 10.1295 26.9966L10.1293 26.9968C8.01997 29.238 4.49198 29.3423 2.2512 27.2307L2.25112 27.2306C0.0106532 25.1202 -0.0934827 21.5921 2.01708 19.3524L2.01711 19.3524C13.4732 7.19343 28.9318 0.5 45.5514 0.5C62.17 0.5 77.6287 7.19343 89.0858 19.3514C91.1973 21.592 91.0923 25.1182 88.8526 27.2297L88.8525 27.2298C87.7757 28.2454 86.4026 28.7486 85.0311 28.7486C83.5473 28.7486 82.0696 28.1615 80.9746 26.9978Z" fill="#FF7A00" stroke="black"/>
<path d="M55.1523 53.692C55.1523 58.8427 50.9768 63.0181 45.8261 63.0181C40.6755 63.0181 36.5 58.8427 36.5 53.692C36.5 48.5413 40.6755 44.3658 45.8261 44.3658C50.9768 44.3658 55.1523 48.5413 55.1523 53.692Z" fill="#FF7A00" stroke="black"/>
<path d="M45.4289 22.0108C26.0642 22.483 13.799 33.3872 16.3296 41.1757C16.6218 42.0749 17.4239 42.7064 18.3352 42.9585C28.9672 45.9001 24.3058 33.5108 45.4289 33.5108C67.429 33.5108 62.6303 47.7168 73.9289 42.5108C80.7777 38.4526 65.929 21.511 45.4289 22.0108Z" fill="#FF7A00" stroke="black"/>
</svg>
