<svg width="72" height="79" viewBox="0 0 72 79" fill="none" xmlns="http://www.w3.org/2000/svg">
<path d="M52.6526 58.8004L52.4386 59.5661L53.2215 59.4272C58.1056 58.5609 62.5308 56.0079 65.7254 52.2131C68.92 48.4184 70.6814 43.6227 70.7024 38.6624V38.6603C70.7024 31.3362 67.7751 24.3312 63.9238 18.0821C60.0796 11.8447 55.286 6.31577 51.4876 1.9348L51.4637 1.90726L51.4634 1.90692L50.6375 0.955973L50.6326 0.950404L50.6276 0.944979C50.4983 0.804688 50.3413 0.692716 50.1666 0.616128C49.9918 0.53954 49.8031 0.5 49.6123 0.5C49.4215 0.5 49.2328 0.539542 49.058 0.616128C48.8833 0.692713 48.7263 0.804683 48.597 0.944979L48.59 0.952523L48.5834 0.960344L47.7654 1.92429C44.8858 5.23966 41.3699 9.31826 38.1515 13.8472L37.936 14.1505L38.1646 14.4441C38.5346 14.9192 38.8955 15.3913 39.2472 15.8602L39.6612 16.4122L40.0568 15.8469C43.2044 11.3495 46.7232 7.26368 49.6269 3.91625C53.3186 8.17217 57.8687 13.4483 61.5227 19.3377C65.2438 25.3354 68.0045 31.9213 68.0047 38.6626C67.9869 42.8542 66.5432 46.915 63.9109 50.1771C61.2784 53.4395 57.6139 55.7089 53.5202 56.6118L53.231 56.6756L53.148 56.9599C53.131 57.018 53.1158 57.0696 53.1014 57.1183C53.0306 57.3581 52.9801 57.5295 52.8389 58.079L52.8386 58.0799C52.801 58.2273 52.7743 58.3333 52.7535 58.4155C52.7075 58.5976 52.6911 58.6626 52.6526 58.8004Z" fill="#1B3A4B" stroke="black"/>
<path d="M27.614 65.7687H27.6134C23.3335 65.7637 19.2303 64.0611 16.2042 61.0344C13.1781 58.0078 11.4763 53.9043 11.4722 49.6243V49.6238C11.4722 49.2641 11.6151 48.9191 11.8695 48.6647C12.1238 48.4103 12.4689 48.2674 12.8286 48.2674C13.1884 48.2674 13.5334 48.4103 13.7878 48.6647C14.042 48.9189 14.1849 49.2637 14.1851 49.6233C14.189 53.1841 15.605 56.598 18.1226 59.1162C20.6401 61.6342 24.0534 63.051 27.614 63.0558V65.7687ZM27.614 65.7687C27.9737 65.7687 28.3188 65.6258 28.5732 65.3714C28.8275 65.117 28.9705 64.772 28.9705 64.4123C28.9705 64.0525 28.8275 63.7075 28.5732 63.4531C28.3189 63.1989 27.9742 63.056 27.6146 63.0558L27.614 63.5558C27.8411 63.5558 28.059 63.646 28.2196 63.8067C28.3802 63.9673 28.4705 64.1851 28.4705 64.4123C28.4705 64.6394 28.3802 64.8573 28.2196 65.0179C28.059 65.1785 27.8411 65.2687 27.614 65.2687V65.7687ZM53.8258 50.9192V50.9194C53.8264 52.9595 53.5916 54.9928 53.1259 56.979C53.1104 57.032 53.0963 57.0796 53.083 57.1247C53.0123 57.3644 52.9617 57.5359 52.8205 58.0853L52.8202 58.0863C52.7827 58.2337 52.7559 58.3397 52.7351 58.4219C52.6898 58.6013 52.6732 58.667 52.6359 58.8006C52.5319 59.1392 52.4221 59.4714 52.3035 59.8033L52.303 59.8049C50.2075 65.7362 46.0824 70.7355 40.657 73.9192C35.2316 77.1028 28.8553 78.2657 22.6553 77.2022C16.4553 76.1387 10.831 72.9174 6.77668 68.1077C2.72234 63.2981 0.499101 57.2098 0.5 50.9193V50.9192C0.5 41.5166 4.27183 32.4357 9.3361 24.2249C14.3993 16.0159 20.7253 8.72168 25.7879 2.88599C25.7879 2.88592 25.788 2.88586 25.788 2.88579L26.8877 1.61954C26.9227 1.5831 26.9646 1.55393 27.011 1.53371C27.0594 1.5126 27.1116 1.50171 27.1644 1.50171C27.2172 1.50171 27.2695 1.5126 27.3179 1.53371C27.3642 1.5539 27.406 1.58303 27.441 1.61939L28.5437 2.89171L28.5438 2.89179C28.6264 2.98711 28.7094 3.08281 28.7927 3.17888C31.4754 6.27252 34.4958 9.75568 37.4898 13.5865C37.4904 13.5872 37.4909 13.5879 37.4915 13.5886L37.5279 13.6362L37.5282 13.6366L38.1377 14.4321L38.1401 14.4352C38.5102 14.9104 38.871 15.3824 39.2227 15.8514L39.2226 15.8515L39.2311 15.8622C39.527 16.2351 39.798 16.61 40.0796 17.0097L40.0839 17.0158L40.0883 17.0218L40.1315 17.0792C40.1319 17.0798 40.1324 17.0805 40.1328 17.0811C47.4278 26.9854 53.8258 38.6741 53.8258 50.9192Z" fill="#FF7A00" stroke="black"/>
</svg>
