<svg width="55" height="82" viewBox="0 0 55 82" fill="none" xmlns="http://www.w3.org/2000/svg">
<path d="M43.676 25.1733H11.3877C10.7905 25.1733 10.3062 24.6889 10.3062 24.0918V21.9107C10.3062 21.3136 10.7905 20.8292 11.3877 20.8292H43.6751C44.2722 20.8292 44.7566 21.3136 44.7566 21.9107V24.0918C44.7575 24.6889 44.2731 25.1733 43.676 25.1733Z" fill="#FF7A00"/>
<path d="M32.7348 3.49165V2.51838C32.7348 1.62539 32.0113 0.901978 31.1184 0.901978H23.9456C23.0526 0.901978 22.3292 1.62539 22.3292 2.51838V3.49165C16.6366 5.60506 12.5793 11.0848 12.5793 17.5125V20.8292H42.4846V17.5125C42.4846 11.0848 38.4273 5.60506 32.7348 3.49165Z" fill="#FF7A00"/>
<path d="M35.5689 47.0895L35.6113 48.9467C35.6113 51.5472 37.6282 53.7761 40.4037 54.2433L47.5755 55.4511C51.3532 56.087 54.098 59.1205 54.098 62.66V80.2789H27.532H0.965088V62.66C0.965088 59.1214 3.7099 56.0879 7.48752 55.4511L14.6594 54.2433C17.4349 53.7761 19.4518 51.5472 19.4518 48.9467L19.4969 47.0895H35.5689Z" fill="#FBCE9D"/>
<path d="M41.9046 25.1733L41.2254 35.7395C40.6671 42.4162 36.2698 48.1556 29.9683 50.4323C29.1809 50.7165 28.3564 50.859 27.532 50.859C26.7076 50.859 25.8831 50.7165 25.0957 50.4323C18.7942 48.1556 14.3969 42.4162 13.8386 35.7395L13.3064 25.1733H41.9046Z" fill="#FBCE9D"/>
<path d="M25.1641 30.5286C25.0233 30.5286 24.8808 30.4961 24.7482 30.4267C23.2608 29.6509 21.814 29.6509 20.3266 30.4267C19.8855 30.6567 19.3407 30.4862 19.1098 30.0442C18.8797 29.6022 19.0511 29.0574 19.4922 28.8274C21.5127 27.7738 23.5621 27.7738 25.5826 28.8274C26.0246 29.0574 26.196 29.6022 25.965 30.0442C25.8036 30.3518 25.4888 30.5286 25.1641 30.5286Z" fill="black"/>
<path d="M35.1547 30.5285C35.0149 30.5285 34.8724 30.496 34.738 30.4266C33.2524 29.6508 31.8046 29.6499 30.3172 30.4266C29.8716 30.6584 29.3295 30.4852 29.0995 30.0441C28.8695 29.6021 29.0409 29.0573 29.482 28.8273C31.5034 27.7738 33.5536 27.7747 35.5732 28.8273C36.0143 29.0573 36.1857 29.6021 35.9557 30.0441C35.7942 30.3517 35.4803 30.5285 35.1547 30.5285Z" fill="black"/>
<path d="M39.1742 53.905C39.563 54.0566 39.9743 54.1711 40.4037 54.2433L47.5755 55.4511C51.3532 56.087 54.098 59.1204 54.098 62.6599V73.3163H27.532H0.965088V62.6599C0.965088 59.1213 3.7099 56.0879 7.48752 55.4511L14.6594 54.2433C15.0888 54.1711 15.501 54.0566 15.8897 53.905L15.8879 53.9005C23.6759 61.573 31.4386 61.5487 39.176 53.9005L39.1742 53.905Z" fill="#FF7A00"/>
<path d="M14.4032 38.8956C11.8289 38.1469 9.94727 35.7701 9.94727 32.9541V30.0848C9.94727 29.1259 10.7248 28.3484 11.6836 28.3484H13.3911L14.4032 38.8956Z" fill="#FBCE9D"/>
<path d="M41.7384 28.3484H43.3801C44.3389 28.3484 45.1164 29.1259 45.1164 30.0848V32.9522C45.1164 35.7692 43.2339 38.146 40.6587 38.8956L41.7384 28.3484Z" fill="#FBCE9D"/>
<path d="M33.5609 39.6884C29.5416 44.9714 25.5222 45.0084 21.502 39.6884H33.5609Z" fill="white"/>
<path d="M10.7799 66.3536H10.7059C9.65237 66.3536 8.79907 67.2078 8.79907 68.2605L10.5625 80.2789H44.5015L46.2658 68.2605C46.2658 67.2069 45.4116 66.3536 44.359 66.3536H44.285H39.8859H15.1799H10.7799Z" fill="#1B3A4B"/>
<path d="M44.2839 54.8972L40.4044 54.2433C40.2249 54.2126 40.058 54.1558 39.8857 54.1116V67.6823C39.8857 68.8973 40.8707 69.8814 42.0848 69.8814C43.2998 69.8814 44.2839 68.8964 44.2839 67.6823V54.8972Z" fill="#1B3A4B"/>
<path d="M15.179 54.1116C15.0058 54.1558 14.8398 54.2135 14.6603 54.2433L10.7808 54.8972V67.6823C10.7808 68.8973 11.7658 69.8814 12.9799 69.8814C14.1949 69.8814 15.179 68.8964 15.179 67.6823V54.1116Z" fill="#1B3A4B"/>
<path d="M27.5221 44.5665C27.5194 44.5665 27.5167 44.5665 27.513 44.5665C25.2183 44.5628 22.9534 43.1043 20.7832 40.2323C20.5766 39.959 20.5423 39.5928 20.6957 39.2861C20.8472 38.9803 21.1602 38.7864 21.502 38.7864H33.561C33.9038 38.7864 34.2177 38.9803 34.3692 39.2879C34.5217 39.5955 34.4874 39.9626 34.279 40.235C32.0925 43.1088 29.8186 44.5665 27.5221 44.5665ZM23.4468 40.5904C24.8368 42.0309 26.2006 42.7597 27.5167 42.7624C27.5185 42.7624 27.5203 42.7624 27.5221 42.7624C28.8399 42.7624 30.211 42.0327 31.61 40.5904H23.4468Z" fill="black"/>
<path d="M14.4033 39.7985C14.3203 39.7985 14.2346 39.7868 14.1507 39.7624C11.1443 38.8884 9.04443 36.0894 9.04443 32.9549V30.0856C9.04443 28.6307 10.2288 27.4473 11.6828 27.4473H13.3903C13.8882 27.4473 14.2923 27.8514 14.2923 28.3493C14.2923 28.8472 13.8882 29.2513 13.3903 29.2513H11.6837C11.2237 29.2513 10.8494 29.6256 10.8494 30.0856V32.9549C10.8494 35.2911 12.4143 37.3784 14.6549 38.0296C15.133 38.1686 15.4081 38.6692 15.2692 39.1481C15.1546 39.5414 14.7947 39.7985 14.4033 39.7985Z" fill="black"/>
<path d="M40.6598 39.7985C40.2684 39.7985 39.9085 39.5423 39.7939 39.1481C39.655 38.6701 39.9292 38.1695 40.4082 38.0296C42.6497 37.3775 44.2156 35.2902 44.2156 32.9531V30.0856C44.2156 29.6256 43.8412 29.2513 43.3812 29.2513H41.7395C41.2407 29.2513 40.8375 28.8472 40.8375 28.3493C40.8375 27.8514 41.2407 27.4473 41.7395 27.4473H43.3812C44.8352 27.4473 46.0196 28.6316 46.0196 30.0856V32.9531C46.0196 36.0876 43.9197 38.8884 40.9124 39.7624C40.8267 39.7859 40.7428 39.7985 40.6598 39.7985Z" fill="black"/>
<path d="M43.6753 26.0752H11.3887C10.2946 26.0752 9.4043 25.1858 9.4043 24.0917V21.9106C9.4043 20.8165 10.2946 19.9271 11.3887 19.9271H43.6762C44.7703 19.9271 45.6597 20.8165 45.6597 21.9106V24.0917C45.6597 25.1858 44.7694 26.0752 43.6753 26.0752ZM11.3887 21.7311C11.2895 21.7311 11.2083 21.8114 11.2083 21.9106V24.0917C11.2083 24.1909 11.2886 24.2712 11.3887 24.2712H43.6762C43.7745 24.2712 43.8557 24.1909 43.8557 24.0917V21.9106C43.8557 21.8114 43.7745 21.7311 43.6762 21.7311H11.3887Z" fill="black"/>
<path d="M42.4845 21.7312H12.5793C12.0813 21.7312 11.6772 21.3271 11.6772 20.8292V17.5125C11.6772 11.1272 15.5694 5.32547 21.4271 2.87831V2.51841C21.4271 1.12932 22.5564 0 23.9455 0H31.1192C32.5074 0 33.6376 1.12932 33.6376 2.51841V2.87831C39.4943 5.32547 43.3874 11.1281 43.3874 17.5125V20.8292C43.3865 21.3271 42.9833 21.7312 42.4845 21.7312ZM13.4813 19.9272H41.5825V17.5125C41.5825 11.6666 37.9005 6.3718 32.4217 4.33777C32.0672 4.20607 31.8336 3.86872 31.8336 3.49168V2.51841C31.8336 2.12423 31.5124 1.80402 31.1192 1.80402H23.9455C23.5513 1.80402 23.2311 2.12423 23.2311 2.51841V3.49168C23.2311 3.86872 22.9966 4.20607 22.643 4.33777C17.1633 6.3718 13.4813 11.6666 13.4813 17.5125V19.9272Z" fill="black"/>
<path d="M22.3293 10.2314C21.8313 10.2314 21.4272 9.82733 21.4272 9.32942V3.49161C21.4272 2.9937 21.8313 2.5896 22.3293 2.5896C22.8272 2.5896 23.2313 2.9937 23.2313 3.49161V9.32942C23.2313 9.82733 22.8272 10.2314 22.3293 10.2314Z" fill="black"/>
<path d="M32.7355 10.2314C32.2367 10.2314 31.8335 9.82733 31.8335 9.32942V3.49161C31.8335 2.9937 32.2367 2.5896 32.7355 2.5896C33.2343 2.5896 33.6375 2.9937 33.6375 3.49161V9.32942C33.6375 9.82733 33.2334 10.2314 32.7355 10.2314Z" fill="black"/>
<path d="M27.5319 14.0705C27.034 14.0705 26.6299 13.6664 26.6299 13.1684V0.90201C26.6299 0.4041 27.034 0 27.5319 0C28.0298 0 28.4339 0.4041 28.4339 0.90201V13.1684C28.4339 13.6664 28.0298 14.0705 27.5319 14.0705Z" fill="black"/>
<path d="M27.532 51.7608C26.593 51.7608 25.6703 51.5994 24.789 51.281C18.1764 48.8925 13.5256 42.821 12.9393 35.8151L12.4062 25.2192C12.3936 24.973 12.4829 24.7312 12.6534 24.5526C12.8238 24.3731 13.0602 24.2721 13.3073 24.2721H41.9055C42.1545 24.2721 42.3926 24.3749 42.5631 24.5571C42.7336 24.7393 42.8211 24.9838 42.8057 25.2318L42.1265 35.7971C41.5393 42.821 36.8877 48.8925 30.275 51.281C29.3929 51.5994 28.4701 51.7608 27.532 51.7608ZM14.2553 26.0752L14.7388 35.6933C15.2647 41.9695 19.4509 47.4339 25.4015 49.5834C26.7689 50.0777 28.2924 50.0777 29.6617 49.5834C35.6131 47.433 39.7993 41.9695 40.327 35.6627L40.9431 26.0743H14.2553V26.0752Z" fill="black"/>
<path d="M39.8849 67.2557H15.1789C14.681 67.2557 14.2769 66.8525 14.2769 66.3537C14.2769 65.8549 14.681 65.4517 15.1789 65.4517H39.8858C40.3846 65.4517 40.7878 65.8549 40.7878 66.3537C40.7878 66.8525 40.3837 67.2557 39.8849 67.2557Z" fill="black"/>
<path d="M44.5014 81.1808H10.5623C10.1149 81.1808 9.73519 80.8525 9.67025 80.4105L7.90592 68.3921C7.8996 68.3479 7.896 68.3046 7.896 68.2604C7.896 66.7117 9.1561 65.4516 10.7058 65.4516C11.2037 65.4516 11.6447 65.8548 11.6447 66.3536C11.6447 66.8524 11.2785 67.2556 10.7806 67.2556H10.7058C10.17 67.2556 9.73068 67.6768 9.70182 68.2054L11.3408 79.3768H43.722L45.361 68.2045C45.3321 67.6759 44.8928 67.2547 44.3579 67.2547C43.8591 67.2547 43.4189 66.8515 43.4189 66.3527C43.4189 65.8539 43.7852 65.4507 44.284 65.4507C45.9067 65.4507 47.1668 66.7108 47.1668 68.2595C47.1668 68.3037 47.1632 68.347 47.1569 68.3912L45.3934 80.4096C45.3285 80.8525 44.9497 81.1808 44.5014 81.1808Z" fill="black"/>
<path d="M42.085 70.7834C40.3748 70.7834 38.9839 69.3916 38.9839 67.6823V54.1116C38.9839 53.8329 39.1129 53.5695 39.333 53.399C39.5531 53.2285 39.8426 53.1663 40.1087 53.2375L40.299 53.2898C40.382 53.3133 40.4659 53.3385 40.5525 53.353L44.4347 54.0069C44.8686 54.08 45.187 54.4561 45.187 54.8963V67.6814C45.1861 69.3916 43.7943 70.7834 42.085 70.7834ZM40.787 55.2228V67.6823C40.787 68.3976 41.3697 68.9794 42.0841 68.9794C42.7985 68.9794 43.3812 68.3967 43.3812 67.6823V55.6594L40.787 55.2228Z" fill="black"/>
<path d="M12.9788 70.7833C11.2686 70.7833 9.87769 69.3916 9.87769 67.6822V54.8963C9.87769 54.4561 10.1961 54.0799 10.63 54.0069L14.5095 53.3529C14.5988 53.3376 14.6818 53.3132 14.7657 53.2898L14.9551 53.2375C15.2239 53.1662 15.5107 53.2266 15.7308 53.3989C15.9509 53.5694 16.0799 53.8328 16.0799 54.1115V67.6813C16.0808 69.3915 14.689 70.7833 12.9788 70.7833ZM11.6817 55.6594V67.6813C11.6817 68.3966 12.2635 68.9784 12.9788 68.9784C13.6941 68.9784 14.2759 68.3957 14.2759 67.6813V55.2228L11.6817 55.6594Z" fill="black"/>
<path d="M54.0979 81.1809H0.964998C0.467089 81.1809 0.0629883 80.7777 0.0629883 80.2789V62.6599C0.0629883 58.6776 3.12261 55.2725 7.3377 54.5617L14.5096 53.353C16.8503 52.9588 18.5497 51.1061 18.5497 48.9467L18.5948 47.0669C18.6074 46.569 19.0332 46.1992 19.5184 46.1865C20.0163 46.1992 20.4105 46.6123 20.3979 47.1102L20.3528 48.9683C20.3528 51.9901 18.0211 54.5905 14.809 55.1318L7.63716 56.3404C4.29341 56.9033 1.86701 59.5606 1.86701 62.659V79.3769H53.1959V62.6599C53.1959 59.5606 50.7695 56.9042 47.4266 56.3414L40.2547 55.1327C37.0409 54.5915 34.7101 51.991 34.7101 48.9476L34.6677 47.1102C34.656 46.6123 35.051 46.1992 35.5499 46.1883C35.5571 46.1883 35.5643 46.1883 35.5697 46.1883C36.0586 46.1883 36.46 46.5789 36.4717 47.0705L36.5141 48.9286C36.5141 51.1079 38.2135 52.9615 40.5542 53.3548L47.7261 54.5635C51.9412 55.2734 54.9999 58.6794 54.9999 62.6617V80.2789C54.9999 80.7777 54.5967 81.1809 54.0979 81.1809Z" fill="black"/>
<path d="M27.5417 60.5708C23.4394 60.5708 19.3343 58.5612 15.2545 54.5418C14.8991 54.1927 14.8955 53.6209 15.2446 53.2664C15.5946 52.911 16.1655 52.9083 16.52 53.2573C23.9409 60.5663 31.1452 60.5681 38.5417 53.2582C38.8971 52.9065 39.4663 52.9119 39.8171 53.2655C40.168 53.6199 40.1644 54.1909 39.8099 54.5409C35.7437 58.5612 31.644 60.5708 27.5417 60.5708Z" fill="black"/>
<path d="M9.54048 74.2183H0.965975C0.468065 74.2183 0.0639648 73.8151 0.0639648 73.3163C0.0639648 72.8175 0.468065 72.4143 0.965975 72.4143H9.54048C10.0384 72.4143 10.4425 72.8175 10.4425 73.3163C10.4425 73.8151 10.0384 74.2183 9.54048 74.2183Z" fill="black"/>
<path d="M54.0979 74.2183H45.5233C45.0245 74.2183 44.6213 73.8151 44.6213 73.3163C44.6213 72.8175 45.0245 72.4143 45.5233 72.4143H54.0979C54.5967 72.4143 54.9999 72.8175 54.9999 73.3163C54.9999 73.8151 54.5967 74.2183 54.0979 74.2183Z" fill="black"/>
</svg>
