<svg width="74" height="74" viewBox="0 0 74 74" fill="none" xmlns="http://www.w3.org/2000/svg">
<path d="M73.1 37.7683H70.6633C70.6633 18.2864 54.8136 2.43666 35.3317 2.43666V0C56.1578 0 73.1 16.9429 73.1 37.7683Z" fill="#1B3A4B"/>
<path d="M62.9472 37.7682H60.5105C60.5105 23.8849 49.2158 12.5894 35.3317 12.5894V10.1527C50.5592 10.1527 62.9472 22.5407 62.9472 37.7682Z" fill="#1B3A4B"/>
<path d="M52.7944 37.7683H50.3578C50.3578 29.4828 43.6171 22.7422 35.3317 22.7422V20.3055C44.9606 20.3055 52.7944 28.1394 52.7944 37.7683Z" fill="#1B3A4B"/>
<mask id="path-4-inside-1_979_10994" fill="white">
<path d="M70.703 66.3691C70.8915 66.1441 71.0637 65.911 71.2302 65.6746C71.2562 65.6381 71.2846 65.6031 71.3098 65.5658C71.4592 65.3465 71.5941 65.1215 71.7248 64.8941C71.7589 64.8348 71.7963 64.7771 71.8288 64.717C71.9474 64.501 72.053 64.2808 72.1545 64.0583C72.1894 63.9819 72.2268 63.9072 72.2601 63.8309C72.3519 63.6181 72.4315 63.402 72.5078 63.1843C72.5395 63.0934 72.5736 63.0032 72.6028 62.9114C72.6694 62.7027 72.7271 62.4923 72.7807 62.2803C72.8075 62.1756 72.8335 62.0716 72.8571 61.9668C72.9017 61.7638 72.9383 61.5599 72.9708 61.3544C72.9895 61.2374 73.0065 61.1213 73.0211 61.0035C73.0455 60.807 73.0634 60.6104 73.0764 60.413C73.0845 60.2847 73.091 60.1572 73.0942 60.0289C73.0999 59.8396 73.1007 59.6512 73.0967 59.4619C73.0934 59.3247 73.0861 59.1874 73.0772 59.0501C73.0658 58.8698 73.052 58.6895 73.0309 58.51C73.0138 58.3638 72.9911 58.2184 72.9683 58.0722C72.9415 57.9017 72.9139 57.7319 72.8782 57.563C72.8457 57.4094 72.8059 57.2576 72.7669 57.1049C72.7255 56.9449 72.6857 56.7857 72.6369 56.6281C72.5874 56.4689 72.5289 56.3121 72.4721 56.1546C72.4185 56.0067 72.3673 55.8581 72.3064 55.7119C72.2381 55.5478 72.1594 55.3886 72.0822 55.2278C72.0172 55.0922 71.9571 54.9557 71.8856 54.8233C71.7955 54.6536 71.6923 54.4903 71.5924 54.3246C71.5201 54.206 71.4535 54.0842 71.3756 53.9681C71.2537 53.7853 71.1181 53.6099 70.9833 53.4336C70.9126 53.341 70.8492 53.2452 70.7753 53.155C70.5601 52.8919 70.3302 52.636 70.0849 52.3907L63.458 45.7638C63.2127 45.5185 62.9569 45.2895 62.6937 45.0734C62.6036 44.9995 62.5085 44.937 62.4159 44.8663C62.2389 44.7315 62.0634 44.595 61.8799 44.4732C61.7637 44.396 61.6435 44.3302 61.5249 44.258C61.3592 44.1572 61.1952 44.0541 61.0254 43.9639C60.893 43.8933 60.7566 43.8324 60.6218 43.7682C60.4609 43.691 60.3001 43.6122 60.136 43.544C59.9898 43.4831 59.8404 43.4319 59.6918 43.3775C59.535 43.3207 59.3799 43.263 59.2207 43.2134C59.0615 43.1639 58.9007 43.1233 58.7398 43.0819C58.5888 43.0429 58.4377 43.0039 58.2858 42.9714C58.1152 42.9357 57.9447 42.9072 57.7733 42.8804C57.6287 42.8577 57.4841 42.8349 57.3388 42.8179C57.1584 42.7968 56.9781 42.783 56.797 42.7716C56.6597 42.7627 56.5233 42.7553 56.386 42.7521C56.196 42.7472 56.0067 42.7489 55.8175 42.7545C55.6899 42.7586 55.5632 42.7643 55.4365 42.7724C55.2383 42.7854 55.0402 42.8041 54.8428 42.8284C54.7266 42.8431 54.6113 42.8601 54.4952 42.878C54.2889 42.9105 54.0842 42.9478 53.8795 42.9925C53.7755 43.0153 53.6724 43.0421 53.5692 43.0681C53.3564 43.1217 53.1452 43.1793 52.9349 43.2467C52.8447 43.276 52.7554 43.3093 52.666 43.3401C52.4476 43.4173 52.2307 43.4977 52.0163 43.5895C51.9407 43.622 51.8668 43.6585 51.7921 43.6935C51.5687 43.7958 51.347 43.9022 51.1301 44.0208C51.0717 44.0533 51.0148 44.089 50.9571 44.1231C50.7281 44.2547 50.5023 44.3904 50.2822 44.5406C50.2464 44.565 50.2123 44.5934 50.1766 44.6178C49.9386 44.7843 49.7047 44.9573 49.4789 45.1465C49.245 45.3423 49.0143 45.5445 48.795 45.7638L44.3115 50.2473C43.7373 50.8215 42.8057 50.8215 42.2314 50.2473L22.851 30.8677C22.2768 30.2934 22.2768 29.3618 22.851 28.7876L27.3345 24.3041C27.5538 24.0848 27.7568 23.8541 27.9526 23.6202C28.141 23.3952 28.3132 23.1621 28.4797 22.9258C28.5057 22.8892 28.5341 22.8543 28.5593 22.8169C28.7088 22.5976 28.8436 22.3726 28.9743 22.1452C29.0085 22.0859 29.0458 22.0283 29.0783 21.9682C29.1969 21.7521 29.3025 21.532 29.404 21.3094C29.4389 21.2331 29.4763 21.1584 29.5096 21.082C29.6014 20.8692 29.681 20.6532 29.7573 20.4355C29.789 20.3445 29.8231 20.2544 29.8524 20.1626C29.919 19.9538 29.9766 19.7435 30.0302 19.5315C30.057 19.4267 30.083 19.3228 30.1066 19.218C30.1513 19.0149 30.1878 18.8111 30.2203 18.6056C30.239 18.4886 30.256 18.3725 30.2707 18.2547C30.295 18.0581 30.3129 17.8616 30.3259 17.6642C30.334 17.5359 30.3405 17.4083 30.3438 17.28C30.3494 17.0908 30.3503 16.9023 30.3462 16.7131C30.3429 16.5758 30.3356 16.4386 30.3267 16.3013C30.3153 16.121 30.3015 15.9407 30.2804 15.7612C30.2633 15.615 30.2406 15.4696 30.2179 15.3234C30.1911 15.1528 30.1634 14.9831 30.1277 14.8141C30.0952 14.6606 30.0554 14.5087 30.0164 14.356C29.975 14.196 29.9352 14.0368 29.8865 13.8792C29.8369 13.72 29.7784 13.5633 29.7216 13.4057C29.668 13.2579 29.6168 13.1093 29.5559 12.9631C29.4877 12.799 29.4089 12.6398 29.3317 12.479C29.2667 12.3433 29.2066 12.2069 29.1352 12.0745C29.045 11.9047 28.9419 11.7415 28.842 11.5758C28.7697 11.4572 28.7031 11.3354 28.6251 11.2192C28.5033 11.0365 28.3676 10.861 28.2328 10.6848C28.1621 10.5922 28.0988 10.4963 28.0249 10.4062C27.8096 10.143 27.5798 9.88718 27.3345 9.64189L20.7076 3.01497C20.4623 2.76968 20.2064 2.54063 19.9433 2.32458C19.8531 2.25067 19.7581 2.18813 19.6655 2.11746C19.4884 1.98264 19.313 1.84618 19.1294 1.72435C19.0133 1.64719 18.8931 1.5814 18.7745 1.50911C18.6088 1.4084 18.4447 1.30524 18.275 1.21509C18.1426 1.14442 18.0061 1.08351 17.8713 1.01934C17.7105 0.94218 17.5496 0.863394 17.3856 0.795168C17.2394 0.734251 17.0899 0.683081 16.9413 0.628662C16.7845 0.571807 16.6294 0.514139 16.4702 0.464594C16.311 0.415048 16.1502 0.374437 15.9894 0.333014C15.8383 0.294027 15.6872 0.25504 15.5353 0.222552C15.3648 0.186814 15.1942 0.158386 15.0228 0.131583C14.8782 0.108841 14.7337 0.0860984 14.5883 0.0690417C14.408 0.047924 14.2277 0.0341162 14.0465 0.0227451C13.9093 0.0138107 13.7728 0.00650068 13.6355 0.0032518C13.4455 -0.00162153 13.2562 2.9093e-06 13.067 0.00568846C12.9395 0.00974957 12.8128 0.0154351 12.6861 0.0235573C12.4879 0.0365529 12.2897 0.055234 12.0923 0.0796006C11.9762 0.0942206 11.8608 0.111277 11.7447 0.129146C11.5384 0.161635 11.3337 0.198997 11.129 0.243669C11.0251 0.266412 10.9219 0.293215 10.8188 0.319206C10.6076 0.372813 10.3964 0.43048 10.186 0.497895C10.0959 0.527135 10.0065 0.560436 9.91719 0.5913C9.6987 0.668461 9.48184 0.748871 9.26741 0.840652C9.19188 0.873141 9.11797 0.909691 9.04324 0.944617C8.81988 1.04696 8.59814 1.15336 8.38128 1.27194C8.3228 1.30443 8.26595 1.34017 8.20828 1.37428C7.98004 1.50505 7.75343 1.64069 7.53332 1.79095C7.49758 1.81532 7.46347 1.84293 7.42773 1.86811C7.18975 2.03462 6.95583 2.20843 6.73003 2.39687C6.49611 2.59261 6.26544 2.79486 6.04614 3.01416C-3.14252 11.7577 -3.96368 32.008 18.6486 54.4513C41.0919 77.0636 61.3422 76.2424 70.0849 67.0538C70.3051 66.8337 70.5073 66.6038 70.703 66.3691V66.3691Z"/>
</mask>
<path d="M70.703 66.3691C70.8915 66.1441 71.0637 65.911 71.2302 65.6746C71.2562 65.6381 71.2846 65.6031 71.3098 65.5658C71.4592 65.3465 71.5941 65.1215 71.7248 64.8941C71.7589 64.8348 71.7963 64.7771 71.8288 64.717C71.9474 64.501 72.053 64.2808 72.1545 64.0583C72.1894 63.9819 72.2268 63.9072 72.2601 63.8309C72.3519 63.6181 72.4315 63.402 72.5078 63.1843C72.5395 63.0934 72.5736 63.0032 72.6028 62.9114C72.6694 62.7027 72.7271 62.4923 72.7807 62.2803C72.8075 62.1756 72.8335 62.0716 72.8571 61.9668C72.9017 61.7638 72.9383 61.5599 72.9708 61.3544C72.9895 61.2374 73.0065 61.1213 73.0211 61.0035C73.0455 60.807 73.0634 60.6104 73.0764 60.413C73.0845 60.2847 73.091 60.1572 73.0942 60.0289C73.0999 59.8396 73.1007 59.6512 73.0967 59.4619C73.0934 59.3247 73.0861 59.1874 73.0772 59.0501C73.0658 58.8698 73.052 58.6895 73.0309 58.51C73.0138 58.3638 72.9911 58.2184 72.9683 58.0722C72.9415 57.9017 72.9139 57.7319 72.8782 57.563C72.8457 57.4094 72.8059 57.2576 72.7669 57.1049C72.7255 56.9449 72.6857 56.7857 72.6369 56.6281C72.5874 56.4689 72.5289 56.3121 72.4721 56.1546C72.4185 56.0067 72.3673 55.8581 72.3064 55.7119C72.2381 55.5478 72.1594 55.3886 72.0822 55.2278C72.0172 55.0922 71.9571 54.9557 71.8856 54.8233C71.7955 54.6536 71.6923 54.4903 71.5924 54.3246C71.5201 54.206 71.4535 54.0842 71.3756 53.9681C71.2537 53.7853 71.1181 53.6099 70.9833 53.4336C70.9126 53.341 70.8492 53.2452 70.7753 53.155C70.5601 52.8919 70.3302 52.636 70.0849 52.3907L63.458 45.7638C63.2127 45.5185 62.9569 45.2895 62.6937 45.0734C62.6036 44.9995 62.5085 44.937 62.4159 44.8663C62.2389 44.7315 62.0634 44.595 61.8799 44.4732C61.7637 44.396 61.6435 44.3302 61.5249 44.258C61.3592 44.1572 61.1952 44.0541 61.0254 43.9639C60.893 43.8933 60.7566 43.8324 60.6218 43.7682C60.4609 43.691 60.3001 43.6122 60.136 43.544C59.9898 43.4831 59.8404 43.4319 59.6918 43.3775C59.535 43.3207 59.3799 43.263 59.2207 43.2134C59.0615 43.1639 58.9007 43.1233 58.7398 43.0819C58.5888 43.0429 58.4377 43.0039 58.2858 42.9714C58.1152 42.9357 57.9447 42.9072 57.7733 42.8804C57.6287 42.8577 57.4841 42.8349 57.3388 42.8179C57.1584 42.7968 56.9781 42.783 56.797 42.7716C56.6597 42.7627 56.5233 42.7553 56.386 42.7521C56.196 42.7472 56.0067 42.7489 55.8175 42.7545C55.6899 42.7586 55.5632 42.7643 55.4365 42.7724C55.2383 42.7854 55.0402 42.8041 54.8428 42.8284C54.7266 42.8431 54.6113 42.8601 54.4952 42.878C54.2889 42.9105 54.0842 42.9478 53.8795 42.9925C53.7755 43.0153 53.6724 43.0421 53.5692 43.0681C53.3564 43.1217 53.1452 43.1793 52.9349 43.2467C52.8447 43.276 52.7554 43.3093 52.666 43.3401C52.4476 43.4173 52.2307 43.4977 52.0163 43.5895C51.9407 43.622 51.8668 43.6585 51.7921 43.6935C51.5687 43.7958 51.347 43.9022 51.1301 44.0208C51.0717 44.0533 51.0148 44.089 50.9571 44.1231C50.7281 44.2547 50.5023 44.3904 50.2822 44.5406C50.2464 44.565 50.2123 44.5934 50.1766 44.6178C49.9386 44.7843 49.7047 44.9573 49.4789 45.1465C49.245 45.3423 49.0143 45.5445 48.795 45.7638L44.3115 50.2473C43.7373 50.8215 42.8057 50.8215 42.2314 50.2473L22.851 30.8677C22.2768 30.2934 22.2768 29.3618 22.851 28.7876L27.3345 24.3041C27.5538 24.0848 27.7568 23.8541 27.9526 23.6202C28.141 23.3952 28.3132 23.1621 28.4797 22.9258C28.5057 22.8892 28.5341 22.8543 28.5593 22.8169C28.7088 22.5976 28.8436 22.3726 28.9743 22.1452C29.0085 22.0859 29.0458 22.0283 29.0783 21.9682C29.1969 21.7521 29.3025 21.532 29.404 21.3094C29.4389 21.2331 29.4763 21.1584 29.5096 21.082C29.6014 20.8692 29.681 20.6532 29.7573 20.4355C29.789 20.3445 29.8231 20.2544 29.8524 20.1626C29.919 19.9538 29.9766 19.7435 30.0302 19.5315C30.057 19.4267 30.083 19.3228 30.1066 19.218C30.1513 19.0149 30.1878 18.8111 30.2203 18.6056C30.239 18.4886 30.256 18.3725 30.2707 18.2547C30.295 18.0581 30.3129 17.8616 30.3259 17.6642C30.334 17.5359 30.3405 17.4083 30.3438 17.28C30.3494 17.0908 30.3503 16.9023 30.3462 16.7131C30.3429 16.5758 30.3356 16.4386 30.3267 16.3013C30.3153 16.121 30.3015 15.9407 30.2804 15.7612C30.2633 15.615 30.2406 15.4696 30.2179 15.3234C30.1911 15.1528 30.1634 14.9831 30.1277 14.8141C30.0952 14.6606 30.0554 14.5087 30.0164 14.356C29.975 14.196 29.9352 14.0368 29.8865 13.8792C29.8369 13.72 29.7784 13.5633 29.7216 13.4057C29.668 13.2579 29.6168 13.1093 29.5559 12.9631C29.4877 12.799 29.4089 12.6398 29.3317 12.479C29.2667 12.3433 29.2066 12.2069 29.1352 12.0745C29.045 11.9047 28.9419 11.7415 28.842 11.5758C28.7697 11.4572 28.7031 11.3354 28.6251 11.2192C28.5033 11.0365 28.3676 10.861 28.2328 10.6848C28.1621 10.5922 28.0988 10.4963 28.0249 10.4062C27.8096 10.143 27.5798 9.88718 27.3345 9.64189L20.7076 3.01497C20.4623 2.76968 20.2064 2.54063 19.9433 2.32458C19.8531 2.25067 19.7581 2.18813 19.6655 2.11746C19.4884 1.98264 19.313 1.84618 19.1294 1.72435C19.0133 1.64719 18.8931 1.5814 18.7745 1.50911C18.6088 1.4084 18.4447 1.30524 18.275 1.21509C18.1426 1.14442 18.0061 1.08351 17.8713 1.01934C17.7105 0.94218 17.5496 0.863394 17.3856 0.795168C17.2394 0.734251 17.0899 0.683081 16.9413 0.628662C16.7845 0.571807 16.6294 0.514139 16.4702 0.464594C16.311 0.415048 16.1502 0.374437 15.9894 0.333014C15.8383 0.294027 15.6872 0.25504 15.5353 0.222552C15.3648 0.186814 15.1942 0.158386 15.0228 0.131583C14.8782 0.108841 14.7337 0.0860984 14.5883 0.0690417C14.408 0.047924 14.2277 0.0341162 14.0465 0.0227451C13.9093 0.0138107 13.7728 0.00650068 13.6355 0.0032518C13.4455 -0.00162153 13.2562 2.9093e-06 13.067 0.00568846C12.9395 0.00974957 12.8128 0.0154351 12.6861 0.0235573C12.4879 0.0365529 12.2897 0.055234 12.0923 0.0796006C11.9762 0.0942206 11.8608 0.111277 11.7447 0.129146C11.5384 0.161635 11.3337 0.198997 11.129 0.243669C11.0251 0.266412 10.9219 0.293215 10.8188 0.319206C10.6076 0.372813 10.3964 0.43048 10.186 0.497895C10.0959 0.527135 10.0065 0.560436 9.91719 0.5913C9.6987 0.668461 9.48184 0.748871 9.26741 0.840652C9.19188 0.873141 9.11797 0.909691 9.04324 0.944617C8.81988 1.04696 8.59814 1.15336 8.38128 1.27194C8.3228 1.30443 8.26595 1.34017 8.20828 1.37428C7.98004 1.50505 7.75343 1.64069 7.53332 1.79095C7.49758 1.81532 7.46347 1.84293 7.42773 1.86811C7.18975 2.03462 6.95583 2.20843 6.73003 2.39687C6.49611 2.59261 6.26544 2.79486 6.04614 3.01416C-3.14252 11.7577 -3.96368 32.008 18.6486 54.4513C41.0919 77.0636 61.3422 76.2424 70.0849 67.0538C70.3051 66.8337 70.5073 66.6038 70.703 66.3691V66.3691Z" fill="#FF7A00"/>
<path d="M70.703 66.3691L69.9364 65.727L69.935 65.7286L70.703 66.3691ZM71.2302 65.6746L70.4152 65.0951L70.4127 65.0987L71.2302 65.6746ZM71.3098 65.5658L70.4834 65.0026L70.4805 65.0069L71.3098 65.5658ZM71.7248 64.8941L70.858 64.3954L70.8579 64.3956L71.7248 64.8941ZM71.8288 64.717L70.9521 64.2358L70.9491 64.2415L71.8288 64.717ZM72.1545 64.0583L71.2451 63.6423L71.2447 63.6432L72.1545 64.0583ZM72.2601 63.8309L73.1767 64.2307L73.1783 64.2269L72.2601 63.8309ZM72.5078 63.1843L73.4514 63.5153L73.4522 63.5132L72.5078 63.1843ZM72.6028 62.9114L71.6501 62.6075L71.65 62.6079L72.6028 62.9114ZM72.7807 62.2803L71.8119 62.0325L71.8112 62.0352L72.7807 62.2803ZM72.8571 61.9668L73.8327 62.1862L73.8337 62.1817L72.8571 61.9668ZM72.9708 61.3544L71.9833 61.1967L71.983 61.1982L72.9708 61.3544ZM73.0211 61.0035L74.0135 61.1267L74.0135 61.1266L73.0211 61.0035ZM73.0764 60.413L74.0742 60.4787L74.0744 60.4762L73.0764 60.413ZM73.0942 60.0289L72.0947 59.9988L72.0945 60.0036L73.0942 60.0289ZM73.0967 59.4619L74.0964 59.4405L74.0964 59.4383L73.0967 59.4619ZM73.0772 59.0501L72.0791 59.1131L72.0793 59.1151L73.0772 59.0501ZM73.0309 58.51L72.0376 58.6259L72.0377 58.6269L73.0309 58.51ZM72.9683 58.0722L73.9564 57.9185L73.9562 57.917L72.9683 58.0722ZM72.8782 57.563L73.8565 57.356L73.8565 57.3559L72.8782 57.563ZM72.7669 57.1049L73.7358 56.8575L73.735 56.8542L72.7669 57.1049ZM72.6369 56.6281L73.5923 56.3326L73.5918 56.3309L72.6369 56.6281ZM72.4721 56.1546L73.4127 55.8152L73.4122 55.8137L72.4721 56.1546ZM72.3064 55.7119L71.383 56.0959L71.3833 56.0965L72.3064 55.7119ZM72.0822 55.2278L71.1803 55.6599L71.1806 55.6604L72.0822 55.2278ZM71.8856 54.8233L71.0024 55.2924L71.0057 55.2984L71.8856 54.8233ZM71.5924 54.3246L72.4488 53.8083L72.4463 53.8041L71.5924 54.3246ZM71.3756 53.9681L70.5435 54.5228L70.5453 54.5254L71.3756 53.9681ZM70.9833 53.4336L70.1883 54.0403L70.189 54.0412L70.9833 53.4336ZM70.7753 53.155L70.0013 53.7881L70.002 53.789L70.7753 53.155ZM70.0849 52.3907L70.7921 51.6836L70.7921 51.6836L70.0849 52.3907ZM63.458 45.7638L62.7509 46.4709L62.7509 46.4709L63.458 45.7638ZM62.6937 45.0734L63.3283 44.3005L63.3277 44.3001L62.6937 45.0734ZM62.4159 44.8663L63.0226 44.0714L63.0218 44.0707L62.4159 44.8663ZM61.8799 44.4732L61.3265 45.3061L61.3269 45.3064L61.8799 44.4732ZM61.5249 44.258L62.0454 43.4041L62.0444 43.4034L61.5249 44.258ZM61.0254 43.9639L60.5546 44.8461L60.5564 44.8471L61.0254 43.9639ZM60.6218 43.7682L60.1892 44.6698L60.192 44.6712L60.6218 43.7682ZM60.136 43.544L59.7514 44.4671L59.7521 44.4674L60.136 43.544ZM59.6918 43.3775L60.0356 42.4385L60.0327 42.4374L59.6918 43.3775ZM58.7398 43.0819L58.49 44.0501L58.4904 44.0503L58.7398 43.0819ZM58.2858 42.9714L58.495 41.9935L58.4909 41.9927L58.2858 42.9714ZM57.7733 42.8804L57.6179 43.8683L57.6188 43.8684L57.7733 42.8804ZM57.3388 42.8179L57.4553 41.8247L57.4551 41.8247L57.3388 42.8179ZM56.797 42.7716L56.732 43.7695L56.7343 43.7696L56.797 42.7716ZM56.386 42.7521L56.3604 43.7518L56.3623 43.7518L56.386 42.7521ZM55.8175 42.7545L55.7874 41.755L55.7856 41.755L55.8175 42.7545ZM55.4365 42.7724L55.3726 41.7745L55.3711 41.7745L55.4365 42.7724ZM54.8428 42.8284L54.7203 41.836L54.7179 41.8363L54.8428 42.8284ZM54.4952 42.878L54.3431 41.8896L54.3396 41.8902L54.4952 42.878ZM53.8795 42.9925L53.6663 42.0155L53.6658 42.0156L53.8795 42.9925ZM53.5692 43.0681L53.8135 44.0378L53.8136 44.0377L53.5692 43.0681ZM52.9349 43.2467L52.6297 42.2944L52.6264 42.2955L52.9349 43.2467ZM52.666 43.3401L52.3395 42.3949L52.333 42.3972L52.666 43.3401ZM52.0163 43.5895L51.6228 42.6702L51.6212 42.6709L52.0163 43.5895ZM51.7921 43.6935L52.2086 44.6026L52.2155 44.5994L51.7921 43.6935ZM51.1301 44.0208L50.6503 43.1434L50.6445 43.1466L51.1301 44.0208ZM50.9571 44.1231L51.4553 44.9903L51.4663 44.9838L50.9571 44.1231ZM50.2822 44.5406L50.8455 45.3668L50.846 45.3665L50.2822 44.5406ZM50.1766 44.6178L49.6132 43.7915L49.6033 43.7984L50.1766 44.6178ZM49.4789 45.1465L50.1206 45.9134L50.1212 45.9129L49.4789 45.1465ZM48.795 45.7638L49.5021 46.4709L49.5021 46.4709L48.795 45.7638ZM44.3115 50.2473L43.6044 49.5402L43.6044 49.5402L44.3115 50.2473ZM42.2314 50.2473L42.9385 49.5402L42.9385 49.5402L42.2314 50.2473ZM22.851 30.8677L22.1439 31.5748L22.1439 31.5748L22.851 30.8677ZM22.851 28.7876L23.5581 29.4947L23.5581 29.4947L22.851 28.7876ZM27.3345 24.3041L26.6274 23.597L26.6274 23.597L27.3345 24.3041ZM27.9526 23.6202L27.1859 22.9781L27.1857 22.9785L27.9526 23.6202ZM28.4797 22.9258L27.6647 22.3462L27.6622 22.3499L28.4797 22.9258ZM28.5593 22.8169L27.7329 22.2538L27.73 22.2581L28.5593 22.8169ZM28.9743 22.1452L28.1076 21.6465L28.1074 21.6468L28.9743 22.1452ZM29.0783 21.9682L28.2017 21.487L28.1986 21.4926L29.0783 21.9682ZM29.404 21.3094L28.4946 20.8935L28.4942 20.8944L29.404 21.3094ZM29.5096 21.082L30.4262 21.4818L30.4278 21.4781L29.5096 21.082ZM29.7573 20.4355L30.701 20.7665L30.7017 20.7643L29.7573 20.4355ZM29.8524 20.1626L28.8997 19.8586L28.8995 19.859L29.8524 20.1626ZM30.0302 19.5315L29.0614 19.2837L29.0608 19.2863L30.0302 19.5315ZM30.1066 19.218L31.0822 19.4373L31.0832 19.4328L30.1066 19.218ZM30.2203 18.6056L29.2328 18.4478L29.2326 18.4494L30.2203 18.6056ZM30.2707 18.2547L31.263 18.3779L31.2631 18.3777L30.2707 18.2547ZM30.3259 17.6642L31.3237 17.7299L31.3239 17.7274L30.3259 17.6642ZM30.3438 17.28L29.3442 17.25L29.3441 17.2547L30.3438 17.28ZM30.3462 16.7131L31.346 16.6916L31.3459 16.6894L30.3462 16.7131ZM30.3267 16.3013L29.3287 16.3642L29.3288 16.3662L30.3267 16.3013ZM30.2804 15.7612L29.2871 15.877L29.2872 15.878L30.2804 15.7612ZM30.2179 15.3234L31.206 15.1697L31.2057 15.1681L30.2179 15.3234ZM30.1277 14.8141L31.1061 14.6072L31.106 14.6071L30.1277 14.8141ZM30.0164 14.356L30.9854 14.1086L30.9845 14.1054L30.0164 14.356ZM29.8865 13.8792L30.8418 13.5838L30.8413 13.5821L29.8865 13.8792ZM29.7216 13.4057L30.6622 13.0663L30.6617 13.0648L29.7216 13.4057ZM29.5559 12.9631L28.6326 13.347L28.6328 13.3477L29.5559 12.9631ZM29.3317 12.479L28.4299 12.911L28.4301 12.9116L29.3317 12.479ZM29.1352 12.0745L28.252 12.5436L28.2552 12.5496L29.1352 12.0745ZM28.842 11.5758L29.6983 11.0594L29.6958 11.0553L28.842 11.5758ZM28.6251 11.2192L27.793 11.7739L27.7948 11.7766L28.6251 11.2192ZM28.2328 10.6848L27.4378 11.2915L27.4385 11.2924L28.2328 10.6848ZM28.0249 10.4062L27.2508 11.0393L27.2515 11.0402L28.0249 10.4062ZM27.3345 9.64189L26.6274 10.349L26.6274 10.349L27.3345 9.64189ZM20.7076 3.01497L21.4147 2.30786L21.4147 2.30786L20.7076 3.01497ZM19.9433 2.32458L20.5778 1.55169L20.5773 1.55124L19.9433 2.32458ZM19.6655 2.11746L20.2721 1.32251L20.2713 1.32187L19.6655 2.11746ZM19.1294 1.72435L18.5761 2.55729L18.5764 2.55753L19.1294 1.72435ZM18.7745 1.50911L19.295 0.65525L19.2939 0.654589L18.7745 1.50911ZM18.275 1.21509L17.8041 2.09729L17.8059 2.09826L18.275 1.21509ZM17.8713 1.01934L17.4387 1.92094L17.4416 1.9223L17.8713 1.01934ZM17.3856 0.795168L17.001 1.71824L17.0016 1.71852L17.3856 0.795168ZM16.9413 0.628662L17.2851 -0.310384L17.2822 -0.311415L16.9413 0.628662ZM15.9894 0.333014L15.7395 1.30129L15.7399 1.30141L15.9894 0.333014ZM15.5353 0.222552L15.7445 -0.755336L15.7404 -0.756196L15.5353 0.222552ZM15.0228 0.131583L14.8674 1.11944L14.8683 1.11957L15.0228 0.131583ZM14.5883 0.0690417L14.7048 -0.924147L14.7046 -0.92417L14.5883 0.0690417ZM14.0465 0.0227451L13.9816 1.02064L13.9839 1.02078L14.0465 0.0227451ZM13.6355 0.0032518L13.6099 1.00293L13.6119 1.00297L13.6355 0.0032518ZM13.067 0.00568846L13.037 -0.993862L13.0352 -0.993805L13.067 0.00568846ZM12.6861 0.0235573L12.6221 -0.974395L12.6206 -0.9743L12.6861 0.0235573ZM12.0923 0.0796006L11.9698 -0.912867L11.9674 -0.91257L12.0923 0.0796006ZM11.7447 0.129146L11.5926 -0.859232L11.5891 -0.85868L11.7447 0.129146ZM11.129 0.243669L10.9158 -0.733332L10.9153 -0.733231L11.129 0.243669ZM10.8188 0.319206L10.5744 -0.650487L10.5727 -0.650053L10.8188 0.319206ZM10.186 0.497895L9.88086 -0.454407L9.87753 -0.453328L10.186 0.497895ZM9.91719 0.5913L9.59066 -0.353912L9.58419 -0.351625L9.91719 0.5913ZM9.26741 0.840652L8.87392 -0.0786742L8.8723 -0.0779811L9.26741 0.840652ZM9.04324 0.944617L9.45979 1.85376L9.46667 1.85055L9.04324 0.944617ZM8.38128 1.27194L7.9015 0.394529L7.89564 0.397785L8.38128 1.27194ZM8.20828 1.37428L8.70546 2.24204L8.71742 2.23497L8.20828 1.37428ZM7.53332 1.79095L8.09666 2.61718L8.09713 2.61686L7.53332 1.79095ZM7.42773 1.86811L8.00101 2.68748L8.00369 2.68559L7.42773 1.86811ZM6.73003 2.39687L6.08931 1.6291L6.08828 1.62996L6.73003 2.39687ZM6.04614 3.01416L6.73549 3.73859L6.74448 3.73004L6.75325 3.72126L6.04614 3.01416ZM18.6486 54.4513L19.3583 53.7469L19.353 53.7416L18.6486 54.4513ZM70.0849 67.0538L69.3778 66.3467L69.369 66.3554L69.3605 66.3645L70.0849 67.0538ZM71.4697 67.0111C71.6832 66.7562 71.8732 66.4982 72.0477 66.2505L70.4127 65.0987C70.2541 65.3238 70.0998 65.5319 69.9364 65.727L71.4697 67.0111ZM72.0451 66.2541C72.0483 66.2496 72.0508 66.2464 72.0697 66.2212C72.0843 66.2018 72.111 66.1662 72.139 66.1246L70.4805 65.0069C70.4833 65.0027 70.4832 65.0033 70.4708 65.0198C70.4667 65.0252 70.4565 65.0388 70.4485 65.0494C70.4394 65.0617 70.4278 65.0774 70.4152 65.0951L72.0451 66.2541ZM72.1361 66.1289C72.3064 65.8791 72.4557 65.6291 72.5917 65.3925L70.8579 64.3956C70.7324 64.6139 70.612 64.8139 70.4834 65.0026L72.1361 66.1289ZM72.5916 65.3928C72.6021 65.3744 72.6118 65.3587 72.6341 65.3216C72.653 65.2902 72.6806 65.2442 72.7085 65.1925L70.9491 64.2415C70.9156 64.3034 70.9372 64.2578 70.858 64.3954L72.5916 65.3928ZM72.7054 65.1982C72.8408 64.9515 72.9579 64.7064 73.0643 64.4733L71.2447 63.6432C71.148 63.8552 71.0539 64.0505 70.9521 64.2358L72.7054 65.1982ZM73.0639 64.4743C73.0743 64.4514 73.1437 64.3064 73.1767 64.2307L71.3435 63.4311C71.3099 63.5081 71.3045 63.5125 71.2451 63.6423L73.0639 64.4743ZM73.1783 64.2269C73.2837 63.9826 73.3722 63.7413 73.4514 63.5153L71.5642 62.8534C71.4907 63.0628 71.42 63.2535 71.3418 63.4348L73.1783 64.2269ZM73.4522 63.5132C73.4715 63.4579 73.5217 63.3216 73.5556 63.215L71.65 62.6079C71.6255 62.6848 71.6075 62.7289 71.5634 62.8555L73.4522 63.5132ZM73.5555 63.2154C73.6303 62.9811 73.6935 62.7498 73.7502 62.5255L71.8112 62.0352C71.7607 62.2349 71.7086 62.4243 71.6501 62.6075L73.5555 63.2154ZM73.7495 62.5282C73.777 62.4208 73.8059 62.3055 73.8327 62.1862L71.8814 61.7475C71.8611 61.8377 71.838 61.9303 71.8119 62.0325L73.7495 62.5282ZM73.8337 62.1817C73.8839 61.9536 73.9239 61.7292 73.9585 61.5106L71.983 61.1982C71.9526 61.3906 71.9196 61.5739 71.8804 61.752L73.8337 62.1817ZM73.9583 61.5121C73.9782 61.3871 73.9971 61.259 74.0135 61.1267L72.0287 60.8803C72.0159 60.9836 72.0007 61.0878 71.9833 61.1967L73.9583 61.5121ZM74.0135 61.1266C74.0406 60.9085 74.0601 60.6926 74.0742 60.4787L72.0785 60.3473C72.0666 60.5282 72.0504 60.7055 72.0287 60.8805L74.0135 61.1266ZM74.0744 60.4762C74.083 60.3401 74.0902 60.1992 74.0939 60.0542L72.0945 60.0036C72.0917 60.1152 72.086 60.2294 72.0784 60.3499L74.0744 60.4762ZM74.0938 60.0589C74.1 59.8525 74.1009 59.6469 74.0964 59.4405L72.0969 59.4834C72.1006 59.6554 72.0998 59.8267 72.0947 59.9988L74.0938 60.0589ZM74.0964 59.4383C74.0927 59.2819 74.0845 59.1296 74.0751 58.9852L72.0793 59.1151C72.0877 59.2452 72.0941 59.3674 72.0969 59.4856L74.0964 59.4383ZM74.0752 58.9872C74.0633 58.7991 74.0482 58.5985 74.024 58.3932L72.0377 58.6269C72.0558 58.7805 72.0683 58.9406 72.0792 59.1131L74.0752 58.9872ZM74.0241 58.3941C74.0045 58.2255 73.9786 58.0607 73.9564 57.9185L71.9802 58.2259C72.0036 58.3762 72.0232 58.5021 72.0376 58.6259L74.0241 58.3941ZM73.9562 57.917C73.9293 57.7456 73.8982 57.553 73.8565 57.356L71.8998 57.7699C71.9296 57.9108 71.9538 58.0577 71.9805 58.2275L73.9562 57.917ZM73.8565 57.3559C73.8186 57.177 73.7723 57.0004 73.7358 56.8575L71.798 57.3522C71.8395 57.5147 71.8727 57.6419 71.8998 57.77L73.8565 57.3559ZM73.735 56.8542C73.6967 56.7065 73.6497 56.5184 73.5923 56.3326L71.6816 56.9236C71.7216 57.053 71.7542 57.1832 71.7988 57.3555L73.735 56.8542ZM73.5918 56.3309C73.5337 56.1443 73.4643 55.9582 73.4127 55.8152L71.5314 56.494C71.5935 56.6661 71.6411 56.7935 71.6821 56.9253L73.5918 56.3309ZM73.4122 55.8137C73.366 55.6865 73.3023 55.502 73.2294 55.3273L71.3833 56.0965C71.4323 56.2142 71.4709 56.327 71.532 56.4955L73.4122 55.8137ZM73.2297 55.3279C73.1484 55.1323 73.0533 54.9402 72.9838 54.7952L71.1806 55.6604C71.2654 55.8371 71.3279 55.9634 71.383 56.0959L73.2297 55.3279ZM72.9841 54.7958C72.9374 54.6985 72.8522 54.5087 72.7656 54.3483L71.0057 55.2984C71.062 55.4028 71.097 55.4859 71.1803 55.6599L72.9841 54.7958ZM72.7688 54.3543C72.6618 54.1527 72.5341 53.9497 72.4488 53.8083L70.736 54.841C70.8506 55.0309 70.9292 55.1544 71.0025 55.2924L72.7688 54.3543ZM72.4463 53.8041C72.4091 53.7431 72.2974 53.5471 72.2058 53.4107L70.5453 54.5254C70.6097 54.6213 70.6312 54.669 70.7386 54.8451L72.4463 53.8041ZM72.2076 53.4134C72.0638 53.1977 71.9057 52.9936 71.7775 52.826L70.189 54.0412C70.3305 54.2262 70.4436 54.373 70.5435 54.5228L72.2076 53.4134ZM71.7782 52.827C71.7763 52.8244 71.6223 52.6108 71.5487 52.521L70.002 53.789C70.0762 53.8796 70.0489 53.8576 70.1883 54.0403L71.7782 52.827ZM71.5494 52.5219C71.3144 52.2346 71.0623 51.9539 70.7921 51.6836L69.3778 53.0978C69.5982 53.3182 69.8058 53.5491 70.0013 53.7881L71.5494 52.5219ZM70.7921 51.6836L64.1651 45.0567L62.7509 46.4709L69.3778 53.0978L70.7921 51.6836ZM64.1651 45.0567C63.8941 44.7857 63.6136 44.5348 63.3283 44.3005L62.0592 45.8463C62.3002 46.0442 62.5314 46.2514 62.7509 46.4709L64.1651 45.0567ZM63.3277 44.3001C63.258 44.243 63.1913 44.1942 63.1418 44.1584C63.0857 44.1178 63.0555 44.0964 63.0226 44.0714L61.8093 45.6613C61.9948 45.8028 61.968 45.7716 62.0597 45.8468L63.3277 44.3001ZM63.0218 44.0707C62.8578 43.9459 62.6504 43.7844 62.4329 43.64L61.3269 45.3064C61.4765 45.4057 61.62 45.5171 61.8101 45.6619L63.0218 44.0707ZM62.4332 43.6403C62.3005 43.5521 62.1063 43.4412 62.0454 43.4041L61.0044 45.1118C61.1807 45.2193 61.2269 45.24 61.3265 45.3061L62.4332 43.6403ZM62.0444 43.4034C61.8971 43.3139 61.6974 43.1885 61.4945 43.0808L60.5564 44.8471C60.6929 44.9196 60.8214 45.0006 61.0055 45.1125L62.0444 43.4034ZM61.4963 43.0817C61.3368 42.9966 61.1571 42.9155 61.0515 42.8652L60.192 44.6712C60.356 44.7492 60.4493 44.7899 60.5546 44.8461L61.4963 43.0817ZM61.0543 42.8666C60.9054 42.7952 60.7149 42.7017 60.52 42.6207L59.7521 44.4674C59.8853 44.5228 60.0164 44.5869 60.1892 44.6698L61.0543 42.8666ZM60.5207 42.6209C60.3475 42.5488 60.1579 42.4832 60.0356 42.4385L59.348 44.3166C59.5229 44.3806 59.6322 44.4174 59.7514 44.4671L60.5207 42.6209ZM60.0327 42.4374C59.8874 42.3847 59.7049 42.3168 59.5178 42.2586L58.9235 44.1683C59.0549 44.2092 59.1826 44.2566 59.3508 44.3176L60.0327 42.4374ZM59.5178 42.2586C59.3296 42.2 59.1414 42.1527 58.9893 42.1135L58.4904 44.0503C58.6599 44.0939 58.7933 44.1277 58.9235 44.1683L59.5178 42.2586ZM58.9897 42.1136C58.8421 42.0755 58.6707 42.0311 58.495 41.9935L58.0766 43.9493C58.2046 43.9767 58.3354 44.0103 58.49 44.0501L58.9897 42.1136ZM58.4909 41.9927C58.2949 41.9516 58.1043 41.92 57.9278 41.8924L57.6188 43.8684C57.7851 43.8944 57.9356 43.9197 58.0807 43.9501L58.4909 41.9927ZM57.9287 41.8926C57.7873 41.8703 57.6234 41.8444 57.4553 41.8247L57.2222 43.8111C57.3449 43.8255 57.4701 43.845 57.6179 43.8683L57.9287 41.8926ZM57.4551 41.8247C57.2492 41.8006 57.0489 41.7854 56.8597 41.7736L56.7343 43.7696C56.9074 43.7805 57.0676 43.793 57.2224 43.8111L57.4551 41.8247ZM56.862 41.7737C56.7177 41.7643 56.5661 41.7561 56.4097 41.7524L56.3623 43.7518C56.4804 43.7546 56.6018 43.761 56.732 43.7695L56.862 41.7737ZM56.4116 41.7524C56.1991 41.747 55.9908 41.7489 55.7874 41.755L55.8475 43.7541C56.0226 43.7488 56.1928 43.7475 56.3604 43.7518L56.4116 41.7524ZM55.7856 41.755C55.6496 41.7594 55.5119 41.7655 55.3726 41.7745L55.5005 43.7704C55.6145 43.763 55.7303 43.7578 55.8493 43.754L55.7856 41.755ZM55.3711 41.7745C55.1539 41.7888 54.9367 41.8093 54.7203 41.836L54.9653 43.8209C55.1436 43.7989 55.3228 43.782 55.502 43.7703L55.3711 41.7745ZM54.7179 41.8363C54.5882 41.8526 54.4623 41.8713 54.3431 41.8896L54.6472 43.8664C54.7603 43.849 54.8651 43.8335 54.9677 43.8206L54.7179 41.8363ZM54.3396 41.8902C54.1174 41.9252 53.8931 41.966 53.6663 42.0155L54.0927 43.9695C54.2752 43.9297 54.4604 43.8958 54.6507 43.8658L54.3396 41.8902ZM53.6658 42.0156C53.5421 42.0427 53.4177 42.075 53.3249 42.0984L53.8136 44.0377C53.927 44.0092 54.009 43.9878 54.0932 43.9694L53.6658 42.0156ZM53.325 42.0983C53.1 42.155 52.867 42.2184 52.6297 42.2944L53.2401 44.199C53.4235 44.1402 53.6129 44.0883 53.8135 44.0378L53.325 42.0983ZM52.6264 42.2955C52.5278 42.3275 52.3946 42.3759 52.3395 42.395L52.9926 44.2853C53.1162 44.2426 53.1616 44.2245 53.2434 44.198L52.6264 42.2955ZM52.333 42.3972C52.106 42.4774 51.866 42.566 51.6228 42.6702L52.4098 44.5088C52.5953 44.4294 52.7891 44.3572 52.999 44.2831L52.333 42.3972ZM51.6212 42.6709C51.527 42.7113 51.4163 42.7653 51.3687 42.7875L52.2155 44.5994C52.3173 44.5518 52.3544 44.5326 52.4114 44.5081L51.6212 42.6709ZM51.3755 42.7843C51.1427 42.8911 50.8969 43.0086 50.6504 43.1434L51.6099 44.8982C51.7971 44.7958 51.9948 44.7006 52.2086 44.6026L51.3755 42.7843ZM50.6445 43.1466C50.5722 43.1868 50.4727 43.2478 50.448 43.2624L51.4663 44.9838C51.5569 44.9302 51.5711 44.9198 51.6158 44.8949L50.6445 43.1466ZM50.459 43.256C50.2199 43.3934 49.969 43.5436 49.7184 43.7147L50.846 45.3665C51.0355 45.2371 51.2363 45.116 51.4553 44.9902L50.459 43.256ZM49.7188 43.7144C49.6774 43.7426 49.6405 43.7708 49.6264 43.7814C49.6055 43.7972 49.6075 43.7954 49.6132 43.7915L50.7399 45.444C50.7814 45.4157 50.8183 45.3876 50.8323 45.377C50.8532 45.3612 50.8512 45.363 50.8455 45.3668L49.7188 43.7144ZM49.6033 43.7984C49.3517 43.9745 49.0924 44.1657 48.8365 44.3801L50.1212 45.9129C50.317 45.7489 50.5255 45.5941 50.7499 45.4371L49.6033 43.7984ZM48.8371 44.3796C48.5925 44.5843 48.3368 44.8078 48.0879 45.0567L49.5021 46.4709C49.6918 46.2812 49.8974 46.1002 50.1206 45.9134L48.8371 44.3796ZM48.0879 45.0567L43.6044 49.5402L45.0186 50.9544L49.5021 46.4709L48.0879 45.0567ZM43.6044 49.5402C43.4207 49.7239 43.1223 49.7239 42.9385 49.5402L41.5243 50.9544C42.4891 51.9192 44.0539 51.9192 45.0186 50.9544L43.6044 49.5402ZM42.9385 49.5402L23.5581 30.1606L22.1439 31.5748L41.5243 50.9544L42.9385 49.5402ZM23.5581 30.1606C23.3744 29.9769 23.3744 29.6784 23.5581 29.4947L22.1439 28.0805C21.1791 29.0452 21.1791 30.61 22.1439 31.5748L23.5581 30.1606ZM23.5581 29.4947L28.0416 25.0112L26.6274 23.597L22.1439 28.0805L23.5581 29.4947ZM28.0416 25.0112C28.2897 24.7631 28.5137 24.5078 28.7195 24.262L27.1857 22.9785C26.9999 23.2004 26.8178 23.4066 26.6274 23.597L28.0416 25.0112ZM28.7192 24.2623C28.9327 24.0074 29.1228 23.7493 29.2972 23.5017L27.6622 22.3499C27.5036 22.5749 27.3493 22.7831 27.1859 22.9781L28.7192 24.2623ZM29.2947 23.5053C29.2979 23.5008 29.3003 23.4976 29.3193 23.4724C29.3339 23.453 29.3606 23.4174 29.3886 23.3758L27.73 22.2581C27.7329 22.2539 27.7328 22.2544 27.7203 22.2709C27.7163 22.2764 27.706 22.29 27.6981 22.3006C27.689 22.3128 27.6773 22.3285 27.6647 22.3462L29.2947 23.5053ZM29.3857 23.3801C29.5559 23.1302 29.7053 22.8802 29.8413 22.6437L28.1074 21.6468C27.9819 21.8651 27.8616 22.065 27.7329 22.2538L29.3857 23.3801ZM29.8411 22.6439C29.8517 22.6256 29.8613 22.6099 29.8836 22.5728C29.9025 22.5414 29.9301 22.4953 29.958 22.4437L28.1986 21.4926C28.1651 21.5546 28.1868 21.5089 28.1076 21.6465L29.8411 22.6439ZM29.9549 22.4493C30.0904 22.2026 30.2075 21.9576 30.3138 21.7245L28.4942 20.8944C28.3975 21.1064 28.3034 21.3016 28.2017 21.487L29.9549 22.4493ZM30.3134 21.7254C30.3239 21.7024 30.3932 21.5576 30.4262 21.4818L28.593 20.6822C28.5594 20.7592 28.554 20.7638 28.4946 20.8935L30.3134 21.7254ZM30.4278 21.4781C30.5332 21.2337 30.6217 20.9924 30.701 20.7665L28.8137 20.1045C28.7402 20.3139 28.6696 20.5047 28.5914 20.686L30.4278 21.4781ZM30.7017 20.7643C30.721 20.7091 30.7712 20.5727 30.8052 20.4661L28.8995 19.859C28.875 19.936 28.857 19.98 28.8129 20.1066L30.7017 20.7643ZM30.805 20.4666C30.8798 20.2322 30.943 20.0009 30.9997 19.7767L29.0608 19.2863C29.0102 19.4861 28.9581 19.6755 28.8997 19.8586L30.805 20.4666ZM30.999 19.7793C31.0265 19.672 31.0554 19.5567 31.0822 19.4373L29.1309 18.9986C29.1107 19.0888 29.0876 19.1815 29.0614 19.2837L30.999 19.7793ZM31.0832 19.4328C31.1334 19.2048 31.1735 18.9803 31.208 18.7617L29.2326 18.4494C29.2021 18.6418 29.1691 18.8251 29.1299 19.0031L31.0832 19.4328ZM31.2078 18.7633C31.2278 18.6382 31.2466 18.5102 31.263 18.3779L29.2783 18.1315C29.2655 18.2348 29.2502 18.339 29.2328 18.4478L31.2078 18.7633ZM31.2631 18.3777C31.2901 18.1596 31.3096 17.9438 31.3237 17.7299L29.328 17.5985C29.3161 17.7794 29.3 17.9566 29.2783 18.1317L31.2631 18.3777ZM31.3239 17.7274C31.3325 17.5912 31.3398 17.4503 31.3434 17.3053L29.3441 17.2547C29.3412 17.3664 29.3355 17.4805 29.3279 17.601L31.3239 17.7274ZM31.3433 17.31C31.3495 17.1037 31.3504 16.8981 31.346 16.6916L29.3464 16.7345C29.3501 16.9066 29.3494 17.0779 29.3442 17.25L31.3433 17.31ZM31.3459 16.6894C31.3422 16.5331 31.334 16.3808 31.3246 16.2363L29.3288 16.3662C29.3373 16.4963 29.3437 16.6185 29.3465 16.7367L31.3459 16.6894ZM31.3247 16.2384C31.3129 16.0502 31.2977 15.8496 31.2736 15.6443L29.2872 15.878C29.3053 16.0317 29.3178 16.1917 29.3287 16.3642L31.3247 16.2384ZM31.2737 15.6453C31.254 15.4767 31.2281 15.3119 31.206 15.1697L29.2297 15.4771C29.2531 15.6273 29.2727 15.7532 29.2871 15.877L31.2737 15.6453ZM31.2057 15.1681C31.1788 14.9967 31.1477 14.8042 31.1061 14.6072L29.1494 15.0211C29.1792 15.1619 29.2033 15.3089 29.23 15.4786L31.2057 15.1681ZM31.106 14.6071C31.0682 14.4282 31.0218 14.2516 30.9853 14.1086L29.0475 14.6034C29.089 14.7659 29.1223 14.893 29.1494 15.0212L31.106 14.6071ZM30.9845 14.1054C30.9463 13.9576 30.8993 13.7695 30.8418 13.5838L28.9311 14.1747C28.9711 14.3041 29.0038 14.4344 29.0483 14.6066L30.9845 14.1054ZM30.8413 13.5821C30.7832 13.3954 30.7138 13.2093 30.6622 13.0663L28.781 13.7451C28.8431 13.9172 28.8906 14.0447 28.9316 14.1764L30.8413 13.5821ZM30.6617 13.0648C30.6156 12.9376 30.5518 12.7532 30.479 12.5784L28.6328 13.3477C28.6819 13.4654 28.7204 13.5782 28.7815 13.7466L30.6617 13.0648ZM30.4792 12.5791C30.3979 12.3834 30.3029 12.1913 30.2333 12.0464L28.4301 12.9116C28.5149 13.0882 28.5775 13.2146 28.6326 13.347L30.4792 12.5791ZM30.2336 12.0469C30.187 11.9496 30.1017 11.7598 30.0151 11.5994L28.2552 12.5496C28.3116 12.6539 28.3465 12.737 28.4299 12.911L30.2336 12.0469ZM30.0183 11.6054C29.9113 11.4039 29.7836 11.2009 29.6983 11.0594L27.9856 12.0921C28.1001 12.2821 28.1787 12.4056 28.252 12.5435L30.0183 11.6054ZM29.6958 11.0553C29.6586 10.9943 29.5469 10.7983 29.4554 10.6618L27.7948 11.7766C27.8592 11.8725 27.8807 11.9201 27.9881 12.0963L29.6958 11.0553ZM29.4571 10.6645C29.3134 10.4488 29.1552 10.2447 29.027 10.0772L27.4385 11.2924C27.58 11.4773 27.6932 11.6241 27.793 11.7739L29.4571 10.6645ZM29.0277 10.0781C29.0258 10.0756 28.8718 9.86197 28.7982 9.77219L27.2515 11.0402C27.3257 11.1307 27.2984 11.1088 27.4378 11.2915L29.0277 10.0781ZM28.7989 9.77308C28.5639 9.48575 28.3118 9.20502 28.0416 8.93478L26.6274 10.349C26.8477 10.5693 27.0553 10.8003 27.2508 11.0393L28.7989 9.77308ZM28.0416 8.93478L21.4147 2.30786L20.0005 3.72208L26.6274 10.349L28.0416 8.93478ZM21.4147 2.30786C21.1436 2.03683 20.8631 1.78595 20.5778 1.55169L19.3087 3.09747C19.5497 3.29531 19.7809 3.50253 20.0005 3.72208L21.4147 2.30786ZM20.5773 1.55124C20.5076 1.49412 20.4409 1.44536 20.3913 1.40954C20.3352 1.36892 20.305 1.3476 20.2721 1.32251L19.0588 2.91242C19.2443 3.05399 19.2176 3.02274 19.3093 3.09792L20.5773 1.55124ZM20.2713 1.32187C20.1073 1.19702 19.8999 1.03555 19.6824 0.891166L18.5764 2.55753C18.726 2.65682 18.8695 2.76825 19.0597 2.91306L20.2713 1.32187ZM19.6828 0.891404C19.5501 0.80324 19.3558 0.692356 19.295 0.655251L18.254 2.36297C18.4303 2.47044 18.4765 2.49114 18.5761 2.55729L19.6828 0.891404ZM19.2939 0.654589C19.1466 0.565045 18.9469 0.439695 18.744 0.331916L17.8059 2.09826C17.9425 2.17079 18.071 2.25175 18.2551 2.36363L19.2939 0.654589ZM18.7458 0.332883C18.5863 0.247754 18.4067 0.166667 18.301 0.11638L17.4416 1.9223C17.6055 2.00035 17.6988 2.04109 17.8041 2.09729L18.7458 0.332883ZM18.3039 0.117747C18.155 0.0463045 17.9645 -0.0471187 17.7695 -0.128179L17.0016 1.71852C17.1348 1.77391 17.266 1.83806 17.4387 1.92094L18.3039 0.117747ZM17.7702 -0.127909C17.597 -0.200063 17.4074 -0.265606 17.2851 -0.31038L16.5975 1.5677C16.7725 1.63177 16.8817 1.66857 17.001 1.71824L17.7702 -0.127909ZM17.2822 -0.311415C17.1369 -0.364128 16.9544 -0.432028 16.7674 -0.490232L16.173 1.41942C16.3044 1.46031 16.4321 1.50774 16.6003 1.56874L17.2822 -0.311415ZM16.7674 -0.490232C16.5792 -0.548799 16.391 -0.596183 16.2388 -0.635378L15.7399 1.30141C15.9094 1.34506 16.0428 1.3789 16.173 1.41942L16.7674 -0.490232ZM16.2392 -0.635264C16.0916 -0.67336 15.9203 -0.717729 15.7445 -0.755327L15.3262 1.20043C15.4542 1.22781 15.585 1.26141 15.7395 1.30129L16.2392 -0.635264ZM15.7404 -0.756196C15.5444 -0.797255 15.3538 -0.828806 15.1773 -0.856407L14.8683 1.11957C15.0346 1.14558 15.1851 1.17088 15.3303 1.2013L15.7404 -0.756196ZM15.1782 -0.85627C15.0369 -0.878504 14.8729 -0.904423 14.7048 -0.924147L14.4718 1.06223C14.5944 1.07662 14.7196 1.09619 14.8674 1.11944L15.1782 -0.85627ZM14.7046 -0.92417C14.4988 -0.948275 14.2984 -0.963412 14.1092 -0.97529L13.9839 1.02078C14.1569 1.03164 14.3172 1.04412 14.472 1.06225L14.7046 -0.92417ZM14.1115 -0.975143C13.9673 -0.984531 13.8157 -0.992765 13.6592 -0.996468L13.6119 1.00297C13.7299 1.00577 13.8513 1.01215 13.9816 1.02063L14.1115 -0.975143ZM13.6612 -0.99642C13.4486 -1.00187 13.2403 -0.99997 13.037 -0.993861L13.097 1.00524C13.2722 0.999975 13.4424 0.998627 13.6099 1.00292L13.6612 -0.99642ZM13.0352 -0.993805C12.8991 -0.989472 12.7615 -0.983329 12.6221 -0.974394L12.75 1.02151C12.8641 1.0142 12.9798 1.00897 13.0988 1.00518L13.0352 -0.993805ZM12.6206 -0.9743C12.4035 -0.96006 12.1862 -0.939587 11.9698 -0.912865L12.2148 1.07207C12.3931 1.05005 12.5723 1.03317 12.7515 1.02141L12.6206 -0.9743ZM11.9674 -0.91257C11.8377 -0.896245 11.7119 -0.877569 11.5926 -0.859226L11.8967 1.11752C12.0098 1.10012 12.1146 1.08469 12.2172 1.07177L11.9674 -0.91257ZM11.5891 -0.85868C11.3669 -0.823681 11.1427 -0.782847 10.9158 -0.733332L11.3423 1.22067C11.5247 1.18084 11.7099 1.14695 11.9003 1.11697L11.5891 -0.85868ZM10.9153 -0.733231C10.7916 -0.706161 10.6673 -0.673884 10.5744 -0.650486L11.0631 1.2889C11.1765 1.26031 11.2585 1.23898 11.3427 1.22057L10.9153 -0.733231ZM10.5727 -0.650053C10.3506 -0.593671 10.1179 -0.53037 9.88086 -0.454401L10.4912 1.45019C10.6749 1.39133 10.8646 1.3393 11.0648 1.28846L10.5727 -0.650053ZM9.87753 -0.453328C9.77897 -0.421361 9.64582 -0.37294 9.59067 -0.35389L10.2437 1.53649C10.3673 1.49381 10.4128 1.47563 10.4945 1.44912L9.87753 -0.453328ZM9.58419 -0.351625C9.35717 -0.271453 9.11719 -0.182802 8.87392 -0.0786728L9.66091 1.75998C9.84649 1.68054 10.0402 1.60838 10.2502 1.53423L9.58419 -0.351625ZM8.8723 -0.0779811C8.77818 -0.0374995 8.66746 0.0164154 8.61982 0.0386852L9.46667 1.85055C9.56847 1.80297 9.60557 1.78378 9.66253 1.75929L8.8723 -0.0779811ZM8.6267 0.0354996C8.39382 0.142203 8.14804 0.25974 7.90151 0.394549L8.86105 2.14933C9.04825 2.04698 9.24594 1.95171 9.45978 1.85373L8.6267 0.0354996ZM7.89564 0.397785C7.82334 0.437952 7.72383 0.498993 7.69914 0.513597L8.71742 2.23497C8.80806 2.18134 8.82226 2.17091 8.86692 2.1461L7.89564 0.397785ZM7.71114 0.506609C7.47319 0.642942 7.22091 0.793425 6.96951 0.965047L8.09713 2.61686C8.28595 2.48796 8.48689 2.36716 8.70541 2.24195L7.71114 0.506609ZM6.96998 0.964724C6.93146 0.990994 6.89779 1.01628 6.88052 1.02923C6.86977 1.0373 6.86459 1.0412 6.85875 1.04553C6.85631 1.04734 6.8546 1.04859 6.85339 1.04947C6.8522 1.05033 6.85171 1.05068 6.85178 1.05063L8.00369 2.68559C8.03662 2.66239 8.06815 2.63851 8.08053 2.62922C8.09819 2.61598 8.09945 2.61528 8.09666 2.61718L6.96998 0.964724ZM6.85446 1.04875C6.60134 1.22585 6.34328 1.41715 6.08931 1.6291L7.37076 3.16464C7.56838 2.99971 7.77817 2.84339 8.00101 2.68748L6.85446 1.04875ZM6.08828 1.62996C5.84365 1.83467 5.58792 2.05817 5.33904 2.30705L6.75325 3.72126C6.94297 3.53155 7.14858 3.35056 7.37179 3.16378L6.08828 1.62996ZM5.3568 2.28972C-4.45901 11.6301 -4.81396 32.573 17.9441 55.1611L19.353 53.7416C-3.11339 31.443 -1.82603 11.8854 6.73549 3.73859L5.3568 2.28972ZM17.9388 55.1558C40.5268 77.9138 61.4699 77.559 70.8094 67.7431L69.3605 66.3645C61.2145 74.9259 41.6569 76.2133 19.3583 53.7469L17.9388 55.1558ZM70.7921 67.7609C71.0412 67.5117 71.2646 67.2571 71.4711 67.0095L69.935 65.7286C69.75 65.9505 69.5689 66.1556 69.3778 66.3467L70.7921 67.7609Z" fill="black" mask="url(#path-4-inside-1_979_10994)"/>
<path d="M13.4041 0.203055C13.4804 0.203055 13.5568 0.203868 13.6331 0.205492C13.7679 0.208741 13.902 0.216051 14.036 0.224985C14.2138 0.236356 14.3901 0.250164 14.5672 0.27047C14.7093 0.286714 14.8514 0.309456 14.9928 0.331386C15.1609 0.35819 15.329 0.385805 15.4955 0.420731C15.6336 0.449971 15.7692 0.484896 15.9406 0.528756L15.9853 0.540127C16.1283 0.576677 16.2712 0.613227 16.4125 0.657087C16.5474 0.698511 16.6806 0.747244 16.8138 0.795977L16.8739 0.817907L16.9673 0.852833C17.0818 0.894256 17.1963 0.934867 17.3092 0.981976C17.4457 1.03883 17.5781 1.103 17.7121 1.16716L17.7852 1.20209L17.9021 1.25732C17.9955 1.30118 18.089 1.34504 18.1807 1.39377C18.3204 1.4685 18.4569 1.55216 18.5925 1.635L18.6705 1.68211L18.7964 1.75684C18.8711 1.8007 18.9458 1.84456 19.0181 1.89329C19.183 2.00294 19.3414 2.12477 19.5006 2.24579L19.5436 2.27909L19.6598 2.36438C19.7126 2.40255 19.7654 2.43991 19.8157 2.48134C20.0813 2.69901 20.3331 2.92643 20.5646 3.15792L27.1915 9.78483C27.423 10.0163 27.6504 10.2681 27.8681 10.5337C27.9103 10.5849 27.9485 10.6385 27.9867 10.6913L28.072 10.8066L28.1085 10.8545C28.2279 11.0113 28.3481 11.168 28.4562 11.3305C28.5049 11.4044 28.5496 11.4799 28.5942 11.5555L28.6681 11.6797L28.7169 11.7593C28.7997 11.8942 28.8818 12.029 28.9565 12.1687C29.006 12.2613 29.0499 12.3547 29.0937 12.4489L29.149 12.5651L29.1847 12.639C29.2481 12.7714 29.3122 12.9038 29.3683 13.0394C29.4146 13.1507 29.4552 13.2636 29.4958 13.3765L29.5307 13.4739L29.5526 13.5349C29.6014 13.6689 29.6501 13.8021 29.6924 13.9377C29.7354 14.0758 29.7711 14.2155 29.8069 14.3544L29.8272 14.4332C29.8637 14.5729 29.8995 14.7134 29.9295 14.8547C29.9644 15.0204 29.9913 15.1869 30.0181 15.3542C30.0408 15.4972 30.0627 15.6401 30.0798 15.7839C30.1001 15.9602 30.1139 16.1364 30.1253 16.3135C30.1342 16.4483 30.1415 16.5823 30.1448 16.7171C30.1496 16.9031 30.148 17.0875 30.1423 17.2735C30.1383 17.3994 30.1326 17.5245 30.1245 17.6504C30.1115 17.8437 30.0936 18.037 30.07 18.2295C30.0554 18.3448 30.0384 18.4594 30.0205 18.5739C29.9888 18.7753 29.9523 18.9751 29.9092 19.1741C29.8881 19.27 29.8637 19.365 29.8345 19.4819C29.7825 19.6899 29.7257 19.8962 29.6599 20.1C29.6387 20.1642 29.616 20.2284 29.5933 20.2925L29.5665 20.3673C29.4917 20.5801 29.4129 20.7921 29.3236 21.0008C29.3041 21.0471 29.2822 21.0926 29.2603 21.1381L29.2196 21.2242C29.1197 21.4418 29.0166 21.6579 28.9004 21.8699C28.8826 21.9016 28.8639 21.9332 28.8444 21.9649L28.7981 22.0437C28.6422 22.315 28.5171 22.518 28.3912 22.7024L28.3546 22.7528L28.3132 22.8088C28.1248 23.0777 27.9607 23.2937 27.7966 23.4903C27.57 23.7615 27.3775 23.9752 27.1915 24.1612L22.7081 28.6446C22.0558 29.2968 22.0558 30.3592 22.7081 31.0114L42.0885 50.391C42.4044 50.707 42.8252 50.8816 43.2719 50.8816C43.7186 50.8816 44.1393 50.7078 44.4553 50.391L48.9388 45.9076C49.1272 45.7191 49.3335 45.5323 49.6097 45.3017C49.8062 45.1368 50.0239 44.9727 50.2935 44.7835L50.348 44.7437L50.3967 44.7079C50.5827 44.5812 50.7866 44.4553 51.0587 44.2986L51.1342 44.2539C51.1651 44.2352 51.1967 44.2165 51.2284 44.1987C51.4412 44.0817 51.6581 43.9777 51.8774 43.8778L51.9618 43.838C52.0065 43.8169 52.052 43.7958 52.0975 43.7755C52.307 43.6853 52.5198 43.6066 52.7343 43.531L52.8106 43.5042C52.8732 43.4823 52.9349 43.4595 52.9982 43.4392C53.2037 43.3734 53.4108 43.3166 53.6431 43.2581C53.7365 43.2346 53.83 43.211 53.9242 43.1899C54.1248 43.146 54.3254 43.1095 54.5277 43.0778C54.6414 43.0599 54.7543 43.0429 54.868 43.0291C55.0621 43.0055 55.2554 42.9868 55.4503 42.9746C55.5746 42.9665 55.6989 42.9608 55.824 42.9568C55.9336 42.9535 56.0433 42.9519 56.1537 42.9519C56.2301 42.9519 56.3056 42.9527 56.382 42.9543C56.5168 42.9576 56.6508 42.9649 56.7848 42.9738C56.9627 42.9852 57.1389 42.999 57.316 43.0193C57.4581 43.0356 57.6003 43.0583 57.7416 43.0802C57.9097 43.107 58.0779 43.1347 58.2444 43.1696C58.3825 43.1988 58.5181 43.2337 58.6895 43.2776L58.7341 43.289C58.8771 43.3255 59.02 43.3621 59.1614 43.4059C59.2962 43.4482 59.4294 43.4961 59.5634 43.5448L59.6235 43.5668L59.7169 43.6009C59.8315 43.6423 59.946 43.6829 60.0589 43.73C60.1953 43.7869 60.3285 43.851 60.4617 43.9152L60.5348 43.9501L60.6518 44.0054C60.7452 44.0492 60.8386 44.0931 60.9304 44.1418C61.0701 44.2165 61.2066 44.3002 61.3422 44.383L61.4202 44.4301L61.5461 44.5049C61.6208 44.5487 61.6955 44.5926 61.7678 44.6413C61.9327 44.751 62.0911 44.8728 62.2503 44.9938L62.2933 45.0271L62.4094 45.1124C62.4622 45.1506 62.515 45.1879 62.5654 45.2302C62.831 45.4479 63.0828 45.6753 63.3143 45.9068L69.9412 52.5337C70.1727 52.7652 70.4001 53.017 70.6178 53.2825C70.66 53.3337 70.6982 53.3873 70.7363 53.4401L70.8216 53.5555L70.8582 53.6034C70.9776 53.7601 71.0978 53.9169 71.2058 54.0793C71.2545 54.1533 71.2992 54.2288 71.3439 54.3043L71.4178 54.4286L71.4665 54.5082C71.5494 54.643 71.6314 54.7787 71.7061 54.9175C71.7557 55.0101 71.7995 55.1035 71.8434 55.1978L71.8986 55.3139L71.9344 55.3886C71.9977 55.521 72.0619 55.6534 72.1179 55.7882C72.1642 55.8995 72.2048 56.0124 72.2455 56.1253L72.2804 56.222L72.3023 56.2821C72.351 56.4161 72.3998 56.5501 72.442 56.6858C72.4851 56.8238 72.5208 56.9635 72.5565 57.1024L72.5768 57.1812C72.6134 57.3209 72.6491 57.4614 72.6792 57.6028C72.7141 57.7684 72.7409 57.935 72.7677 58.1023C72.7905 58.2452 72.8124 58.3882 72.8294 58.5319C72.8497 58.7082 72.8636 58.8844 72.8749 59.0615C72.8839 59.1963 72.8912 59.3303 72.8944 59.4652C72.8993 59.6512 72.8977 59.8356 72.892 60.0216C72.8879 60.1474 72.8822 60.2725 72.8741 60.3984C72.8611 60.5917 72.8432 60.785 72.8197 60.9775C72.8051 61.0929 72.788 61.2074 72.7702 61.3219C72.7385 61.5233 72.7019 61.7232 72.6589 61.9221C72.6378 62.0188 72.6134 62.1138 72.5841 62.23C72.5322 62.4379 72.4753 62.6442 72.4095 62.8481C72.3892 62.9122 72.3657 62.9764 72.3429 63.0398L72.3161 63.1153C72.2414 63.3281 72.1626 63.5401 72.0733 63.7488C72.053 63.7951 72.0318 63.8406 72.0099 63.8861L71.9701 63.9722C71.8702 64.1899 71.7671 64.4059 71.6509 64.6179C71.633 64.6504 71.6144 64.6813 71.5949 64.7129L71.5486 64.7909C71.3926 65.0622 71.2675 65.2653 71.1416 65.4496L71.1051 65.5L71.0637 65.556C70.8752 65.8249 70.7112 66.0417 70.5471 66.2375C70.3197 66.5088 70.128 66.7224 69.9379 66.9116C66.2667 70.7697 60.7915 72.8953 54.5212 72.8953C43.3783 72.8953 30.6898 66.2935 18.7907 54.3059C6.68699 42.2932 0.0860612 29.4999 0.204646 18.2839C0.269623 12.1411 2.39358 6.77068 6.18991 3.15873C6.37834 2.97029 6.58465 2.7843 6.8608 2.55281C7.05736 2.38793 7.27503 2.22386 7.54469 2.03462L7.59911 1.99482L7.64785 1.95908C7.83384 1.83237 8.03771 1.70648 8.30981 1.54972L8.38534 1.50505C8.41621 1.48637 8.44788 1.46768 8.47956 1.44982C8.69236 1.33367 8.90923 1.22889 9.12853 1.12899L9.213 1.08919C9.25767 1.06807 9.30315 1.04695 9.34864 1.02665C9.55819 0.936492 9.77099 0.857706 9.98542 0.782169L10.0618 0.755366C10.1243 0.733436 10.186 0.710694 10.2494 0.690388C10.4549 0.624598 10.662 0.567743 10.8935 0.509263C10.9877 0.485708 11.0811 0.461342 11.1753 0.441036C11.3759 0.397176 11.5766 0.360626 11.7788 0.32895C11.8925 0.311081 12.0054 0.294024 12.1191 0.280216C12.3132 0.256662 12.5066 0.237981 12.7015 0.225798C12.8258 0.217675 12.95 0.21199 13.0751 0.207929C13.1848 0.20468 13.2944 0.203055 13.4041 0.203055ZM13.4041 0C13.292 0 13.1807 0.00162444 13.0686 0.00487333C12.9411 0.00893444 12.8144 0.01462 12.6877 0.0227422C12.4895 0.0357378 12.2913 0.0544188 12.0939 0.0787855C11.9778 0.0934055 11.8625 0.110462 11.7463 0.128331C11.54 0.16082 11.3353 0.198182 11.1307 0.242854C11.0267 0.265596 10.9235 0.2924 10.8204 0.318391C10.6076 0.37281 10.3964 0.430477 10.186 0.497892C10.0959 0.527132 10.0065 0.560433 9.91719 0.591297C9.6987 0.668458 9.48184 0.748868 9.26741 0.840649C9.19188 0.873138 9.11797 0.909688 9.04324 0.944614C8.81988 1.04695 8.59814 1.15335 8.38128 1.27194C8.3228 1.30443 8.26595 1.34017 8.20828 1.37428C7.98004 1.50505 7.75343 1.64069 7.53332 1.79095C7.49758 1.81532 7.46347 1.84293 7.42773 1.86811C7.18975 2.03462 6.95583 2.20843 6.73003 2.39687C6.49611 2.59261 6.26544 2.79485 6.04614 3.01415C-3.14252 11.7577 -3.96368 32.008 18.6486 54.4513C32.0478 67.9521 44.6673 73.0999 54.522 73.0999C61.1724 73.0999 66.5623 70.7559 70.0858 67.0538C70.3051 66.8345 70.5081 66.6038 70.7039 66.3699C70.8923 66.1449 71.0645 65.9118 71.231 65.6754C71.257 65.6389 71.2854 65.6039 71.3106 65.5666C71.46 65.3473 71.5949 65.1223 71.7256 64.8949C71.7597 64.8356 71.7971 64.7779 71.8296 64.7178C71.9482 64.5018 72.0538 64.2817 72.1553 64.0591C72.1902 63.9828 72.2276 63.908 72.2609 63.8317C72.3527 63.6189 72.4323 63.4028 72.5086 63.1852C72.5403 63.0942 72.5744 63.004 72.6036 62.9122C72.6702 62.7035 72.7279 62.4931 72.7815 62.2812C72.8083 62.1764 72.8343 62.0724 72.8579 61.9676C72.9025 61.7646 72.9391 61.5607 72.9716 61.3552C72.9903 61.2383 73.0073 61.1221 73.0219 61.0043C73.0463 60.8078 73.0642 60.6112 73.0772 60.4139C73.0853 60.2855 73.0918 60.158 73.095 60.0297C73.1007 59.8404 73.1015 59.652 73.0975 59.4627C73.0942 59.3255 73.0869 59.1882 73.078 59.0509C73.0666 58.8706 73.0528 58.6903 73.0317 58.5108C73.0146 58.3646 72.9919 58.2192 72.9691 58.073C72.9423 57.9025 72.9147 57.7327 72.879 57.5638C72.8465 57.4103 72.8067 57.2584 72.7677 57.1057C72.7263 56.9457 72.6865 56.7865 72.6378 56.6289C72.5882 56.4697 72.5297 56.3129 72.4729 56.1554C72.4193 56.0076 72.3681 55.8589 72.3072 55.7127C72.239 55.5486 72.1602 55.3895 72.083 55.2286C72.018 55.093 71.9579 54.9565 71.8864 54.8241C71.7963 54.6544 71.6931 54.4911 71.5932 54.3254C71.5209 54.2069 71.4543 54.085 71.3764 53.9689C71.2545 53.7861 71.1189 53.6107 70.9841 53.4344C70.9134 53.3418 70.8501 53.246 70.7761 53.1558C70.5609 52.8927 70.331 52.6368 70.0858 52.3915L63.4588 45.7646C63.2135 45.5193 62.9577 45.2903 62.6945 45.0742C62.6044 45.0003 62.5094 44.9378 62.4176 44.8671C62.2405 44.7323 62.0651 44.5958 61.8815 44.474C61.7654 44.3968 61.6451 44.3311 61.5266 44.2588C61.3609 44.1581 61.1968 44.0549 61.027 43.9647C60.8947 43.8941 60.7582 43.8332 60.6234 43.769C60.4626 43.6918 60.3017 43.613 60.1377 43.5448C59.9915 43.4839 59.842 43.4327 59.6934 43.3783C59.5366 43.3215 59.3815 43.2638 59.2223 43.2143C59.0631 43.1647 58.9023 43.1241 58.7415 43.0827C58.5904 43.0437 58.4393 43.0047 58.2874 42.9722C58.1169 42.9365 57.9463 42.908 57.7749 42.8812C57.6303 42.8585 57.4858 42.8358 57.3404 42.8187C57.1601 42.7976 56.9797 42.7838 56.7986 42.7724C56.6614 42.7635 56.5249 42.7562 56.3876 42.7529C56.3097 42.7513 56.2317 42.7505 56.1545 42.7505C56.0424 42.7505 55.9312 42.7521 55.8191 42.7553C55.6916 42.7594 55.5649 42.7651 55.4381 42.7732C55.24 42.7862 55.0418 42.8049 54.8444 42.8293C54.7283 42.8439 54.6129 42.8609 54.4968 42.8788C54.2905 42.9113 54.0858 42.9487 53.8811 42.9933C53.7772 43.0161 53.674 43.0429 53.5709 43.0689C53.3581 43.1225 53.1469 43.1801 52.9365 43.2475C52.8464 43.2768 52.757 43.3101 52.6677 43.341C52.4492 43.4181 52.2323 43.4985 52.0179 43.5903C51.9423 43.6228 51.8684 43.6593 51.7937 43.6943C51.5704 43.7966 51.3486 43.903 51.1318 44.0216C51.0733 44.0541 51.0164 44.0898 50.9588 44.1239C50.7297 44.2555 50.5039 44.3912 50.2838 44.5414C50.2481 44.5658 50.2139 44.5942 50.1782 44.6186C49.9402 44.7851 49.7063 44.9581 49.4805 45.1473C49.2466 45.3431 49.0159 45.5453 48.7966 45.7646L44.3132 50.2481C44.0256 50.5356 43.6496 50.6786 43.2735 50.6786C42.8975 50.6786 42.5206 50.5348 42.2339 50.2481L22.8534 30.8685C22.2792 30.2942 22.2792 29.3626 22.8534 28.7884L27.3369 24.3049C27.5562 24.0856 27.7593 23.8549 27.9542 23.621C28.1426 23.396 28.3148 23.1629 28.4813 22.9266C28.5073 22.89 28.5358 22.8551 28.5609 22.8177C28.7104 22.5984 28.8452 22.3735 28.976 22.146C29.0101 22.0867 29.0474 22.0291 29.0799 21.969C29.1985 21.7529 29.3041 21.5328 29.4056 21.3103C29.4406 21.2339 29.4779 21.1592 29.5112 21.0828C29.603 20.87 29.6826 20.654 29.759 20.4363C29.7906 20.3453 29.8247 20.2552 29.854 20.1634C29.9206 19.9547 29.9783 19.7443 30.0319 19.5323C30.0587 19.4275 30.0847 19.3236 30.1082 19.2188C30.1529 19.0157 30.1894 18.8119 30.2219 18.6064C30.2406 18.4894 30.2577 18.3733 30.2723 18.2555C30.2966 18.0589 30.3145 17.8624 30.3275 17.665C30.3356 17.5367 30.3421 17.4092 30.3454 17.2808C30.3511 17.0916 30.3519 16.9031 30.3478 16.7139C30.3446 16.5766 30.3373 16.4394 30.3283 16.3021C30.317 16.1218 30.3031 15.9415 30.282 15.762C30.265 15.6158 30.2422 15.4704 30.2195 15.3242C30.1927 15.1536 30.1651 14.9839 30.1293 14.8149C30.0968 14.6614 30.057 14.5095 30.0181 14.3568C29.9766 14.1968 29.9368 14.0376 29.8881 13.8801C29.8386 13.7209 29.7801 13.5641 29.7232 13.4065C29.6696 13.2587 29.6184 13.1101 29.5575 12.9639C29.4893 12.7998 29.4105 12.6406 29.3334 12.4798C29.2684 12.3441 29.2083 12.2077 29.1368 12.0753C29.0466 11.9055 28.9435 11.7423 28.8436 11.5766C28.7713 11.458 28.7047 11.3362 28.6267 11.22C28.5049 11.0373 28.3692 10.8618 28.2344 10.6856C28.1638 10.593 28.1004 10.4972 28.0265 10.407C27.8112 10.1438 27.5814 9.88799 27.3361 9.64269L20.7092 3.01578C20.4639 2.77049 20.208 2.54144 19.9449 2.32539C19.8547 2.25148 19.7597 2.18894 19.6671 2.11827C19.49 1.98345 19.3146 1.84699 19.131 1.72516C19.0149 1.648 18.8947 1.58221 18.7761 1.50992C18.6104 1.4092 18.4463 1.30605 18.2766 1.2159C18.1442 1.14523 18.0077 1.08432 17.8729 1.02015C17.7121 0.942989 17.5513 0.864204 17.3872 0.795977C17.241 0.735061 17.0915 0.683891 16.9429 0.629472C16.7862 0.572616 16.631 0.514948 16.4718 0.465403C16.3126 0.415857 16.1518 0.375246 15.991 0.333823C15.8399 0.294836 15.6888 0.25585 15.537 0.223361C15.3664 0.187623 15.1958 0.159195 15.0244 0.132392C14.8799 0.10965 14.7353 0.0869077 14.5899 0.0698511C14.4096 0.0487333 14.2293 0.0349255 14.0482 0.0235544C13.9109 0.01462 13.7744 0.00730999 13.6372 0.00406111C13.56 0.000812221 13.482 0 13.4041 0Z" fill="#FF7A00"/>
</svg>
